<svg id="Layer_1" data-name="Layer 1" xmlns="http://www.w3.org/2000/svg" viewBox="0 0 379.11 122.77"><title>amped</title><path d="M168.84,363v3.2l-1.18.85-2.7.34h-2.69l-.34-.17h-2.7l-.34.17-.67-.17-.51-1.18-.33-.17-.34,1-.68.34H151.3l-1,.17-1-.17-1.35-.68-.84-.84-.51-1.35-.5-4.55.17-.17-.34-1,.17-1.86-.85-1.69.68-2.19h-.68l-.33-2.53.33-.67-.67-1.52-.51-3.54-.5-1.69-.85-.67-3.87.33-1.35-.33h-7.76l-2,.33-1,.51-1,1.18-.17,1,.17.34v1.85l-.5,1.69-.17,2-.68,2.86-.5,5.74-1.35,5.9-1.35,1.18-1.35.34h-14l-1.35.17-1.18-.34-1.68-1.69.33-.84-.17-2,.68-1.34.17-3,1-5.23,1.52-6.74-.17-.68,1.18-5.73.17-2.36,1-6.41,1-2.53-.17-2.7.17-.67.51-.51v-1.69l1-4.72.51-4.05.67-1.68-.17-.68.51-3.71.5-1.85,1-.17.51-.67-.34-.17-1.18.5.68-3.71.5-1.35-.17-.33.85-1-.51-1.51,1-5.57,1.35-8.09.85-2.7-.17-2.19.33-.51,1-.17-.17-.34-.68.17.17-1.35.51-1.35v-1l.84-.84-.5-.17-.17-.34,1.35-6.4.16-2.7.51-1.35v-1.35l.17-.34,1.35-8.26,1-2.87-.51-.67.68-2.36.67-.51.85.17v-.85l-.17-.16.33-.34,2.2-.17.33.17h2.7l.34-.17h5.23l.34-.17,1,.17.5.67,1-1.18,1.52.51h3l2.36-.34,1.69.34,1.34,1,1,1.69,1,4.89.34,3.88.33,1.35.17,2.53.17.17v.84l-.34.67,1,.68v.84l1.35,7.93-.33,1.18.84,1.18-.51,1.35,1,.33.16.34-.16.68.67,5.39.51,1.35.16,2.7h-.33l-.34-.51H154v.51l.34.51.67.33.34.51-.5.51.84.33.51,3.54-.85.34.51.51.5.17.34.5.17,3,.84,2.86.51,3.21-1.69,1.18.68.17,1.18-.17.33.84-.16,1,.5,1.35.17,2.7.51,1.52,1,5.4-.17,1,.51.84.16,2.36.34,1-.17.17v1.52l.68,1.52.17,1.52.5,1.68-.17.68.85,4.21.5,1-.17,1.35,1,4.22.16,3.2.34.68.17,2,.68,1.35v2l.5,1.18v2l.68,4.72.84,2.7-.17.84.67,1.35v1Zm-63.41-10.79-.16-.17-.17.34ZM108,357.1l-.67-.34v.34l.34.34Zm3.55-29,.67-.5.34-.68h-.34l-.67.68-.34-1,.17-.67-.68.17-.17.84.34.68-.34,1.34-.16,2.2-1.19-.68-.5.34.84.51.17.84.68-.34.5-.67.51-3Zm-.85,29.18.17-.17-.34-.51-.67.17-.34.51Zm1.18,1.68-.67-.67-.84-.17.5.84,1,.68Zm-.67-41.15v.34l.34-.17-.17-.5Zm1.18,6.58.17-.67-.51-.34-.34.67.34.51Zm1-16.19-.34.17-.5.84.67-.16.34-.68Zm0,20.91-.17-.17-.17.34Zm-.34,5.23.34.34.84-.51.34-.84-.84-1.52-.51.51v1.35l-.17.17Zm.17,24.29h.51l-.17-.34h-.34Zm.51-13.16h-.34l.51.51.17-.68Zm.17-26.81.67-.17-.17-.34-.5-.17Zm.67,29-.67.68v.5l1-.84v-.51Zm.17,16.7.17-.51-.34-.5-.34.5.17.68ZM114.54,331l-.17.17h.51l-.17-.51Zm-.17,19.22.68.17V350l-.68-.16Zm.17-55.31.34.17-.17-.51Zm1.69,37.1-1-.34-.51.34-.17.68h1.35l.51-.34Zm-.68,29.18-.67-.68-.17.17.17.67.67.17Zm-.5-49.08h.17l-.34-.34Zm-.17,8.94.17.5.67-.33.17-.68-.34-.17Zm0,13.15.34.34h.33V334l-.67-.16Zm1.85-29.68-.17-.34-1.34-.16.84,1.18.34.17.16-.34Zm-1,11.64,1-.34.34-1-1,.34-.68,1Zm-.17,38.11.68.17v-.34l-.68-.17Zm.68-30.19.33-.33v-.51l-.67-.34-.17.68.17.5Zm-.51,12.65,1,.17-.67-.67-.34.16Zm.68,20.58-.51-.17v.5l.34.17.17-.17Zm0-41-.34.67.34.34.5-.84-.34-.34Zm-.17,12.14.33.17-.33-.68-.17.34Zm.67-14.34v-.33h-.67v.33l.5.34Zm.34,37.27-.51-1.35-.33-.16-.17.16.84,1.69Zm-.51-44.85-.33-.17v.17Zm-.17,13.82.85.68.67-.17.34-.51h-.67v-.67l-.85-.34-.5.34V320Zm.85,6.75h-1l.67.67.34-.16Zm.34-36.09-.51-.17-.17.34.51.17Zm.33,14h.34l.17-.68-1.18-1-.17.34.51,1.18-.17.34Zm-.17,56.83.17-.67-.67.16.17.51Zm.68-85.33-.68.67.17.34h.34l.51-.84Zm.34,14.5-.51-.34-.51.51.85.17Zm-.68,18.89h-.34v.34h.51Zm.34,12.81-.51.34.17.34.68-.17v-.34Zm-.51,31.88.51.17-.34-.51Zm.85-13.66v-.51l-.34-.17-.34.34Zm-.17-37.78-.34.17.34.34.33-.34Zm.17,5.23.67-.67-.34-.17-.67.17v.67Zm.5-10.46.17-.16-.51-.51-.16.84Zm0,63.92-.34-.34-.16.51Zm.34-78.08.17-.84h-.17l-.34.67Zm1.35,8.43-.34-.67-.67-.17-.68.67,1.69.51Zm-1.18,31.2-.51-.17.51.51Zm-.34,11.13h-.17v.34h.34Zm-.17,7.25.34.17v-.17Zm.34.68h0Zm1.35-23.78,1.18.33-.34-.67-.5-.34h-1.69v.68Zm-.85-45.7-.33.5.67.68.17-1.35Zm-.33,14.5.17.51.16-.17Zm.5,27.82.17-.33-.17-.85,1.52-.84.84-.84-1.34.17-1.35,1-.17.67.17,1Zm.17,28.5-.34-.5-.33.5.5.17Zm.17-41.48-.51-.17.68.68v-.17Zm0,4.55-.17-.17-.17.34Zm-.17,3.71-.17.34.34.17.17-.34-.17-.34Zm.17,25.13.51-.51v-.33l-.68-.34-.17.17v1Zm.17-31.37-.34.34.17.34.51-.51Zm.17-45.7.34.17.16-.67-.67.16Zm-.17,4.05.51.51.67-.51-1.18-.34Zm0,26.81.34.34.17-.17-.17-.34Zm.17,14.34.67.17.17-.34-.17-.51Zm.5-37.27.17-.34-.17-.34h-.33v.68Zm.17,14.84-.33-.17-.17.34.17.5ZM122.3,306l-.51-.51-.5.17,1,.51Zm-.17-11.47-.67.17.5.34.34-.17Zm.51,20.91,1.51-.67.51-.68h-.34l-.67-.5-.68-.17v.67l-.33.68-1,.67-.16.51.33.51.68.16.67.68.17-.84-.84-.68v-.34Zm-.51-22.59v-.17l-.51-.17v.34Zm-.17,8.43-.34,1h.51l.67-.51.17-1Zm0-1,.34-.17-.34-.17Zm.17-23.61V277l.34.17.33-.5-.5-.34Zm0,2,.67.17-.16-.68-.51.17Zm.34-26.81-.17.33.34.17V252Zm.17,51.77-.34.34.17.5.5-.34v-.67Zm.16-17,.17-.34-.5-.17v.51Zm.17,12.14-.17-.34-.33.17v.34Zm1.86,5.23-.85.16V305l-1,.5-.5.51,1-.17.34-.34,1-.16-.17-.51Zm-2,4.89.51-.34-.17-.34-.67.51Zm-.33,1,.33.17.68-.17.34.67.33-.17.17-.84-1-.17-.51.34-.33-.17Zm.33-59.53-.16.34.16.16.68-.5ZM124,290.82l1,.17.67-1.85v-.68l-2.7.68-.33.67,1,.17.5-.34-.5,1Zm-1,9.11.17.67.34.17.34-.17.33-.67-.5-.17-1,.17ZM122.8,248l.51.5.17-.33-.51-.51Zm0,44.52v.67l.68-1-.51.17Zm1.69,25h-.67l-1,1,1.69.17Zm.17-43.17.34-.51-.51-1.18-.84-.17-.51.51-.17.5,1,.51.51-.68-.17,1.18Zm.67,6.91-1-.17-.5-.34V281l-.85.34,2.53.17ZM123,325.06l.51.5.17-1-.68.17Zm1.18-26.48-.17-1-.84-.17.34,1.18.5.34Zm-.84-23.44.51.5L124,275l-.16-.34-.51-.17Zm.51,2.19.16-.67h-.5l-.17.5Zm-.51,5.23.51.34v-.34l-.51-.51Zm.17-3.21.5-.16-.5-.17Zm.5,52.79-.16-.17-.17.34H124Zm-.16-29.68h.33v-.34l-.33-.17Zm.16,10,.51.34.34-.17-.17-.68-.84-.17v.34Zm1-61.22-.51-.34-.34.17-.17.68.34.17.85-.34Zm-.68,17.37-.34.17h.34Zm-.17,11.13.34.17-.51-.51Zm2-31.2v-.33l-1-.34-.85.84,1-.17.68.17Zm-1.86,1.35.34.17,1-.34-1.35-.16Zm.17,17.37-.17.17.51.84.17-1-.17-.33h-.34Zm.34,29.68h-.51l.51.51Zm0-13.66.5-.33-.16-.34-.68.5Zm1,2-1,1-.34.67.34.17,1.85-.17-.33-1.68-.34-.34Zm-.67-34.91V250h-.34v.34Zm.5,12.31-.84.34.17.67.67-.17.17-.67Zm-.5,8.77.16.17.34-.17.51-1.18-1.35,1Zm.67,34.74.67-.34v-.34l-1-1.68-.67.17.5.16.34.51.17,1.18Zm-.67,11.47.16-.34H125l-.17.5Zm.5-37.44-.34-.17-.33.34.67.33.17-.33Zm.17-5.23-.67-.17.16.68.51-.17Zm-.17,19.56-.34-.34-.16.51Zm-.34,4.72-.16.34.33.34.17-.84Zm.51,7.42.17-.33-.51-.34-.33.67Zm.17-46.2-.17-.34h-.34v.34l.51.33Zm-.17,48.23.51-.51-.17-1-.68,1.52Zm-.17-30.86H126l.17-.34-.17-.34h-.34Zm.84,13.32-.84.67v.85l.34.17.84-1.52Zm-.33-15-.34-.17v.34h.51Zm.67,34.07-1-.17v.33l1,.68Zm-.5-46.38.16-.34-.5.34Zm-.34,32h.5l-.5-.5Zm.17,31.37-.17.34.34.33.33-.67Zm.33-54.14-.16-.16-.17.33Zm2.2-11.29-.34-.51-1.18.17-.84,1.18v.67l1-.84,1.35-.17Zm-2.2,38.28-.16.33.5.17.17-.33-.17-.34Zm1.69-21.76-1.35-.17-.34.51.17.34.68-.17.84.17.34-.51Zm-1.52,11v.34l.51.17.17-.84h-.51Zm.85-22.76v-.34L127,266l-.17.34.51.51Zm-.68,13.15.34-.34-.34-.16Zm.34,6.58.34.17.5-.17.17-.34-1.18-.34-.17.34Zm0,15.18-.17-.17-.17.33Zm.84-28.67-.17-.17H127l.34.67.67.17Zm-.67,1-.34.34v.33h.51l.16-.67Zm0,17.54h.33l.17-.51-.5-.17-.34.51ZM127.19,305l.5-.17-.67-.17Zm.67-41.15-.67-.17.34.34Zm-.5,18.89.5.5,1,.17.16-.5h-.33l-.68-.68-.34-.67-.5.84Zm.33,10.79h-.33v.34h.5Zm.34,2.36.85-.84-.68-.51-.67.17.16,1.18Zm-.34-37.94.17.84.51.84,1.52.17-1.18-1.85Zm.51,40.13-.17-.33v.5Zm.84,31.71-.33-.17-.51.34-.17,1,1-.17Zm-.67,5.9V336l1,.67-.5-1.18-.68-.17Zm.67-50.76-.67.17.17.5h.84Zm-.5-15.85v.33l.34-.16Zm1.18,63.07-.17-.17h-1l.17.34.67.34.34-.17Zm-1-75.89.67-.17.17-.5-.84.16Zm.33,9.95.34-.34-.34-.17-.33.34Zm.51,6.91.17-.5-.84-.17v1l.33.34ZM129,287.62l-.16.17.5-.34Zm1.18-9.95-.16-.34h-.85l-.17.34,1.18.34Zm-.5,4.38.34-.33-.68-.68-.17,1Zm-.51,34.07h.51l.17-.34-.68-.17Zm9.62,6.74,1-.33.67-1v-1.85l-.34-1.35L140,314.6l-.34-.84-1.52-7.93L138,303l-.5-1,.33-1-1-2.53V294l-.67-1.69.17-.51-.51-3-.34-.68-.67-.16-1.18,4v2l-.51,1-.34.17.34.84-.17,2.36-.67,2.53-.17,3.88-.67,2.53-.17,3-.85,3.55-.17,3.37-.67,3.37.17,1.52.84.67,2.36.34.34-.17h5.23Zm-8.94-64.75-.17.16.34.17.16-.17-.16-.5Zm.33,9.27h.51l.51-.5v-.34l-.34-.17-.68.34-.33.5Zm0,13.16.17-.34-.5-.17v.51Zm0,48.06v-.34l-.33.17.17.5Zm.51-69.65-.17-.17-.5.34.16.34.51.16Zm-.17,71.33.51.34.17-.17-.68-.5Zm.51-65.93V264l-.34-.17v.51Zm1-11.47h-.67l-.51.34v.33h.84l.68-.5Zm-1,4.89.34.17.16-1h-.33l-.34.33Zm0,32.88.34.17v-.34l-.51.17Zm0,4.22-.17.17h.34Zm1.52-39.29-.17-.68-1-.17v.34l.84.84Zm-.85,4,.17-.5-.34-.17-.16.67Zm.17,40.65v-.17l-.34.33Zm.34-33.56.34-.51-.34-.51-.34,1Zm.17,1-.34.84,1.35-.17,1.35-.67-.17-.51-1.69.34-.5-.17Zm1.51-4.39h-.5l-.51.34-.67,1.18,2.87-1.35-.17-.17-.68.17Zm-1-6.57-.33-.34.16.67h.34Zm-.17,74.54h.34l.17-.34-.17-.34-.5.17Zm.34-62.06.34.5.5-.67-.5-.51Zm1.52,13.82h-.51l-.67.34-.17.34.34.34,1-.34.34-.51Zm-.51-37.43-.67.5.17.17.67-.17.17-.5ZM133.43,260l.34-.17-.34-.33Zm1.69-6.07-.34-.17-.51.34.17.5.68-.16Zm.67-2.19-1-.17.17.34.84.16Zm-.51,15.68.85,1v-1l-.34-.5h-.51Zm.34,7.42h-.34l.34.51.34-.68Zm.17,56.83-.34.17-.17.51h.34l.51-.68Zm0,2.2.17-.51-.51-.17-.17.68Zm-.17-79.1-.17.51.68-.17v-.34Zm.51,3.21-.68-.17v.67h.68Zm0,77.74-.17-.17-.17.34Zm0-82.8.33.17v-.34l-.33-.17ZM137,273l.51-.51-.34-.84-.51-.34-.5.17v.34l.5.67-.17.51Zm-.34-14.34-.33.51.33.17.34-.51Zm-.17,23.61-.16.34h.33l.17-.34Zm1.18-15.68-1,.34.17.33.51.17.67-.84ZM137,334.33l-.17-.17-.17.34Zm.17-45.53-.34.17.17.67.34-.17.17-.67Zm0,2.87v.16h.5l-.33-.5Zm.17-40.14.17-.17-.17-.34Zm1,31.7-.17-.17-.51.51.51.17Zm1,15.69-.34-.51h-.84l-.51.51H139l.34.33ZM141.69,333l-.5-.5-2.53-.34-.17.51.34.5,1.51-.34.34.51-.34,1,.51.17.17-.17-.17-.34.67-.67ZM139,248.66l-.33.51.17.34.67-.34-.17-.34Zm.68,24.12L139,273l-.33,1,1-.34L140,273Zm-.34,58-.34-.17-.33.17v.34l.33.17.34-.17Zm0-58.52-.17-.17-.17.34ZM139,329.1v.68l.34.5h.34V329.1l-.51-.33Zm.68-29.17-.51-.17v.67l.85-.5Zm0-21.59-.17-.17-.17.34Zm.5-11,.34-.34-.5-.33-.34.67Zm-.5,12.14.17.34.84.51v-.85l-.34-.5-.67-.17Zm.67,2,.34.33h.67l.51-.33-1.35-.51-.34.17Zm.85-9.11-.68.34.51.33.17-.33Zm.16,3-.67.33-.17.34.17.17.67-.17.34-.67Zm-.5,2.19-.34.5.17.85.34-.51.17-1Zm.67-12.65-.33-.17-.51.34,1.69.5-.68-.33Zm-.84,21.92v.68l.34.17,1-1-1.18-.16Zm.17,35.92.34.17v-.34l-.51-.16Zm1-34.06-.51-.34-.16.34.33.34Zm-.34,20.4V309l-.33.16Zm1.86-34.9-.34-.68-1.35-.17-.34,1.18.34.17.68-.67.5,1.51-1,.68-.17.84H142l.67-.67.51-.17.67.67.17-.33-.17-.17.17-.51,1,.51.34-1.52-1.18-.84-.84.5ZM143,288l.68-.34,1,.34.5.84.68.17.17-2.2-.51-.5-.51-.17-.33.34v.67l-.34.17-1.18-.51-.67-.84.67-.17v-.84l.67-.34,1.35,1,.34-.33-.17-1.52.68-.17.17,1.18.5.34v-.34l1.18-.5.17-.34-2.36-1.18h-1l-.34.5-.67.17v-1.35l-.51-.84-1-.17,1.18,2.36-1.52-.17-.51.34.85.51.34,1.68-.34,1,.5,1.19Zm-.84-26.14-.51.33.17.51.68-.68Zm.17,65.93-.68.51v.51H142l.67-1ZM142,303.47l-.17.34.17.17.17-.34-.17-.51Zm0,14.17-.17.16v.85l.17.17.51-.85-.34-.33ZM142.2,249l-.17.34.34.17.17-.34Zm.17,11.47-.17-.17-.17.34Zm.17,19.22-.34-.17L142,280l.51.34Zm-.34,9.95.84-.17.34-.67-.34-.17-.67.17-.34.67Zm-.17,11.3v.84l.34.34v-1.35l-.17-.17Zm0,31,.84.34-.33-1-.51.33Zm1.18-64.59h.34v-.67l-.51-.85-.84-.17.17.68-.17.51Zm-.84,11.47.33.17.34-.68-.17-.17-.67.34ZM143.88,263l.17-.34h-1l-.67.34.33.84.68.17.17-.84Zm-1,8.6v-.68l-.33-.17-.17.85Zm0,20.4-.33.17-.17.51.33.17.51-.68Zm-.17,31.71-.16-.17-.17.34Zm0,6.41.17-.17-.17-.51-.33.17V330Zm.51-20.58-.51-.5-.16.33.16.34Zm0-18.21.34-.34-.17-.34-.51.51Zm0,4.55.84.51.34-.17-.17-.68-1-.16-.17.33Zm.67-15.51h-.5v.5h.5l.17-.33Zm.34-8.27-.5.17-.17.68.67.16.51-.5-.17-.34Zm1-8.09-.17-.34.17-.67-.67.17-.84,1.34.67.34.84-.17Zm-.84,25-.34-.34-.33.17v.34l.5.33.34-.17Zm.17,8.43.34-1-.85.5-.33,1.69.84.34.17-.17-.17-.68Zm-.34,37.77.17-.5-.51-.68-.16.51.16.67Zm0,1.69.51-.51-.17-.33-.84.5v.34Zm.17-59.53-.51.68.34.67.68-.34-.17-.84Zm-.17-15.85.51.34.67-.17.34-.68-.34-.17-1.35.17Zm.34,41.82.67-1-.33.17-.85-.34.17,1.18Zm-.17,22.26-.17-.17-.17.34Zm.17-57.34.34-.33-.51-.51-.17.84Zm-.17,21.93v.17l.51-.17-.34-.34Zm.67-21.25-.33.34.33.16.34-.67Zm-.16,21.92-.17.51.5.17,1.35-.17.51-.85-1.18-.84.5.68-.16.5-1,.17-.33-.51Zm0,8.6.16.17,1.19-1h.33l-.33-.68-1.35,1Zm.16-6.74.51.17v-.34l-.51-.17Zm1,4.21h.33l.17-.5-.33-.85.67-1.18v-.84l-.34-.67-.33.33.16,1.52-.33.17-.85-.51-.17.68.51.84v.84Zm-.68,19.23h.51l.67-1-1.18.33-.34.51Zm.68-38.62v.34l-.85,1,.17.67.68.34.17-.34-.17-.5.5-.51-.17-1.18Zm.67,4.72-1-1.18-.51.17v.84l1.52.51Zm-1.18,24.45v-.33h-.34l.17.5Zm.17-1,.17-.5-.51.17Zm-.17,7.59.17.68.67.16-.16-.67-.51-.34Zm.51,13.83h.17l.16-.67-.33-.17-.51.33Zm.33-59-.67.5v.17l1-.51Zm-.67.84h.17l-.17-.17Zm.34,39.12v-.33h-.34V308Zm0,25.47-.17-.17-.17.34Zm-.17-68.81.5.17.17-.34-.67-.16Zm.34,36.77,2.36-.68-1.52-1.35-.51,1.18-.5.34-.17.67Zm.16,1.35-.16-.17-.17.33Zm.17,1.51-.33-.5v.33Zm.34,30.53h-.34l-.33.5h.67Zm.84-49.41-1-.17-.17.33.17.85.84,1,1,.51h.5l.17-.51-.17-1.18-.5-1-.68-.17Zm-.84,6.07-.34.17.51,1.34.67.17.34-.5-.51-.34-.33-.84Zm-.34,21.58.51.17-.51-.5Zm.51,8.6.34-.67v-.68l-.68.17-.17.85.34.5Zm-.51,5.74.17.33-.17,1.52.34.34.51-2.36-.51-.34-.34.17Zm.85-53.12v-.51l-.68-.17.34.34v1Zm0,82.63-.17-.17-.17.34Zm-.17-25.63v.33l.33.17.17-.67-.33-.17Zm.84-42.84-.67.68.16.67.34-.17.51-1.18Zm.17-10.62-.34-.68-.34-.17.17.68.51.5Zm1.18,13.66-.68-.51v-.34l.85-.17-.17-1.34-.68.33-1.18,2.2.17.5,1.69-.34Zm-1.52,5.9.51.17.5.84-.33.17-.17.67.67.17.51-.67-.17-.34v-1.35l-.34-.5-.17.33-1.35.34Zm1.86,24.28,1.18-.5.33.17.51,1.34.67-.16-.5-1.69-.51-.51-1.35.51.34-.84.51.17.17-.34-.51-.34-.51-.84-.33-1.35h.67l.34-.51-2.53-.17-.68.17.17.68.51.5.34-.84.5,1.52v3Zm-1.69,13.83-.34-.17-.17.17.17.34h.34Zm-.34-30h.51l-.51-.5Zm.17-23.77.17.16.34-.16v-.34h-.51Zm0,20.23v.51l.34-.17Zm.51-18.89-.34.34.17.17.5-.17.17-.34ZM148.1,303v.34l.84,1.18-.17-1.35-.5-.5Zm.34,9.79-.17-.68-.17.84Zm.5-41.15-.67.67.34.17.84-.84Zm.85,22.26-.68.67-.67-.17,1.18,1.35.5-1v-1Zm-1.18-23.61.33.34h.34v-.51l-.67-.17Zm1.35,3.54-.68-.51-.51.17h.34l-.17.34.68.34L150,274Zm-1.19,7.08.85.34-.17-.67-.34-.34h-.34Zm.68,19.56-.51.85.17.33,1.35-.67-.34-.67-.67-.17Zm.34,10.29-.17.34.17.67.67-.33.34-.85-.34-.17-.84-1.85-.51-.34-.17,1,.85.85Zm-.17-22.26-.34-.17v.34l.51.17Zm-.34,39.8.84.67.51-.67-1.35-.51Zm.34,2.87.17-.34h-.34v.34Zm0-24.29.34-.33h-.34Zm1-16.36-.34-.16-.5.33.33.34.51-.17ZM150,304.65l.67-.17.51-.5-.17-.68-.85.17-.33,1Zm0,18.72.67.17.17-.68-1,.17Zm1.34,18,.68.17-.17-1,.51-1-1.52.17-.68-.17-.33.84.17.34,1-.17v.84Zm-1.18,1.52.34-.5h-.34l-.33.33Zm.51-37.1v-.5h-.34l-.33.5Zm.34,29,.67-.17-.34-.51-1.18-.67-.16.84Zm-.17-69.48-.51.17-.17.67.68-.17.34-.5Zm.84,16.69-.34-.5-.5.17-.68.84,1.52-.17Zm-1.18-14,.17.16.51-.67-.85.17Zm.17,17.2.34-.17.17-.68-.34-.16-.51.84Zm0,23.27-.34.34v.33l.34.17.34-1ZM151,332l-.17-.51h-.34l-.17.34.51.51Zm.17-37.27v-.34l-.34-.17-.34.17Zm1.18,20.91-.34-.17-.68.17L151,316l-.17.67h.34l.5.51.68.17v-.68l.5-1Zm1-1.85-2.19-.34-.17.51.5.33,2.2-.17Zm-2,15.51.68.17v-1l-.68.17-.33.67Zm-.16-34.06h.5l-.17-.34h-.33Zm0,40.47h.33l-.17-.34Zm.16-8.77.68.68.17-.34-.68-.68Zm.34,6.24.51.51h.5l-.17-.85-.84-.16-.34.5Zm-.17,11.64.17-.34-.34.34Zm1-33.39-.84,1.35.34.16.67-.16.34-.68v-.67l-.51-.34Zm-.5,3.71-.17-.17-.17.33Zm0,28.83h.17l.17-.5-.68.17Zm0-33.05.34.17v-.34l-.51-.17Zm.67,36.26-.17-.51-.67-.34.17,1.18Zm-.5-22.6,1,1,.67-.17-.16-.67.16-.84h-1l-.67.33Zm.17-21.75,1.18.5-.17-.5-1-.34Zm.5,29.17.68-.67.17-.85-1.19.68-.16.67.16.34Zm-.17-46.71-.17.17.17.5H153v-.67Zm.34,42.83-.17-.34-.17.68.34-.17Zm1-8.77.34-.34v-.67l-.51-.51-.84-.16.84,1.34-.33.34Zm-.33-12.81.33-1.18-.67.33-.17.34.17.67Zm1,42.32.33-1.68-.16-.51-.68.51-.67-.68h-.34l.51,2,.33.33.68.17Zm-1.18-56.15.5.17v-.34l-.67-.17Zm.5,28.67-.17-.17.17-.68-.5.17-.17.68.5.33Zm0,21.92-.17-.17-.33.17-.17.5.67.34Zm0-49.41.17-.34L154,293l-.33.85Zm-.17,21.75,1.69-.17-1.69-.17Zm.51-15.18-.17-.33-.17.33Zm.34,27.16-.68.33.51.51.5-.17Zm.17,15-.17-.33h-.34v.67h.51Zm-.17,18.56-.34-.34v.34Zm.67-62.06-.34-.34-.16.5Zm0,21.41h-.5v.34l.33.17.34-.17Zm.17,13.49h.17v-.33l-.68-.17-.16.34Zm-.34,12,.34.17.34-.17-.51-.51-.34.17Zm1-38.62-.34-.17-.68.51.17.67.68-.17.33-.5Zm-.34,36.09h-.34l-.17.33.17.68h.34Zm.17-5.23-.17-.17-.34.34.51.34Zm-.51,18.55.34-.17-.34-.17Zm1-44-.33.16-.17.68.67-.17.17-.67Zm.68,30.18-.68-.17-.33.51.33.17.68-.17ZM157,332.81l-.17-.16-.17.33Zm.34-1,.16-.67-.33.17L157,332Zm0-19.56h.5l-.17-.34h-.33Zm.33,2,.17-.33h-.5v.33Zm1,16.7.17-.17-.33-.34h-.34l-.51.51Zm.17,11.47v-.34l-.67.34v.5l.34.17Zm-.33-25.13.16.17.34-.68-.5.17Zm.5,32.21v-.34l-.34.17Zm-.17-33.9.34.17.17-.34-.51-.17Zm.34,21.76.17-.51-.51.51Zm.34,5.9-.68-.17.17.34.51.17Zm.67-20.24.34-.5h-.67l-.34.5Zm-.33,19.56.33-.5-.5.17Zm1.18-7.42-.17-.16-.17.33Zm0,25.47.33.17.51-.34-.84-.34-.17.34Zm.84-18.89-.17.34.17.17Zm.67,7.08-.17-.33h-.33v.33Z" transform="translate(-101.56 -244.61)" fill="#e61030"/><path d="M200.88,297.31l-1-.16-.17-.17-.16.17-.68,1-.17,2.7.68,3.2-.17,1-.51,1-1,.68v.34l.84.16.51.51v2.87l-.17.33v1.86l.34.67-.17.34v2.53l-.34.68.17,2.19.34,1-.34,3.71.34.84-.34.85.17.67-.68.84.51.85v3.71l-.51.67.68.85.17,3.71-.17.5v4.22l.17.33v2l.17.34v2.36l-.34,3,.17.34-.34,1.52-.17,2.36.34,1.68v6.92l1.85-.17-1.85.34v1l-.17,1-.67,1.35-1.35.84-1,.17H191.1l-.33.17h-4.22l-.34-.17h-4.38l-1.86-.84-.67-1.18-.34-2.7.34-.51-.51-1.51.34-1L179,356l-.17-.34V353.3L179,353v-2.7l.17-.34v-4.05l-.17-.33V329l-.17-.34.17-3.2.34-.34.17-.84-.51-3.54V316.2l.17-.34v-2.69l-.17-.34v-2l-.17-.34v-2.19l.17-.34v-1.35l.17-.34v-3.71l-.17-.17V297l.17-.34v-2.19l-.34-2.7.68-1.69v-3.2l-.34-1.86-.17-3.87.17-.34V279.1l-.34-.67.34-3.54-.17-.34.17-3-.17-.33V267.3l.17-.34v-3.2l-.17-.34V258l.17-.34v-1.34l-.34-1.19.51-2.52L179,247.9l.51-1.51,1-1,1-.5,4,.33.34-.16h2l.34-.17h11l.34-.17h2.36l.33.17h1.35l.34.17h1.52l1.18.5v.34l1,.67,1,2.37.17,2.52.84,2.53,1.18,9.45.51,1.68,1,1.69-.17,2,.85,3.38-.34.67.84,2,.68,3.54,1.35,6.57.16,2.7.85,3.37-.34.68.68,1.35.67,3.2.17,2.53,1,4.22-.51.5.68.85-.34,1,.17,1.18,1,1.69v1.35l.51.67.5.17.51-.34.51-1.68.67-1,.84-7.42.68-1.18v-2.36l.67-1.35-.17-.33V293.1l1.35-3.54.17-2.36.68-2,.5-.17.51.68.34-.17-1.35-1.35.33-.34-.33-1.51.67-1.18-.17-.34.51-2.53.17-2.7,1-2.87-.17-.67.84-3.21.17-2.69.84-1.35v-1.52l.17-.34v-2l1-1.35-.34-.51-.17-1,.84-2.87.68-4,.5.33-.17-.67v-2.7l.85-1.85,1.85-1.35h1.69l.34-.17h5.39l.34.17h3.54l.34.17h8.94l3.2-.34,1.52.5.67.68.51,1,.17,3.37.17.34-.34,2.7v3l.51,3.37v2l-.17.34v1.35l-.17.34v1.34l-.17.34v2l.17.16v1l-.51.16.51,1v8.6l.17.33-.34,4.73.17.17.17,2.69-.34,2,.17,1.35-.34,1.51.34.68-.17,4.05.34,1.51-.68.85.51.84.17,1-.34,3.37.34,1.52-.51,2.19.34,2.53v5.74l.34,2-.17.17-.17,2.36.17.17-.34,4.05.17.33v3.21l.17.34v4.72l-.17.34v4l.17.34.17,3.2-.51,1,.17,1.34v5.74l-.34,1,.34,2,.17,3-.17.17v8.77l-.68,2.19-1.35,1h-3l-.34.17h-1.68l-1-.34-4.38.34-.34-.17h-1.35l-.33-.17h-3.88l-1.18-.67-1-1.52.17-3.88-.33-.34v-4.89l.16-.33V352l.34-1.68v-8.6l-.17-.34v-6.75l-.17-.33v-3.71l.17-.34v-3l-.17-.16v-2.2l.34-.67v-2.36l-.17-.34v-4.72l.17-.34V315l-.17-.34-.17-3.87.17-.34v-2l-.17-.34v-2.36l.17-.34v-2.53l-.17-.34V299l.51-.84-.51-.51-.5-1.35-.85.68-.33-.51-.17.34.5.67-.5,2.36-1.35,6.92-1.35,6.58-.17,3.2-1,1.35-.34.84.51.85-.51,4-.67,2.87-.68.17.34.17.17,1.35-.67,1.85-1.19-2.36-.16.17V329l1,1.69-.34,4.72-.67,2-1.35,7.93-.85,1,.34.67v1.86l-.51,1v.84l-.33.68-.17,2.36-.51,1.52-.17,2-.67,2-.67,4.22-.85,1.86v1l-2.86.67-3.71.17-1.69-.5-3.37.5-1-.34-1-.84-.84-1.52-.51-1.68v-1.86l-.33-.67-.68-2.87-.17-2.87-.84-3v-2l-.84-2.36-.17-2,.17-.34-.68-1.18v-2.53l-1-3.37-.17-2.7-.34-1.69L205.77,328l-.67-4.39-1.35-7.08-.5-4.89-1-2.87-.17-2-1.51-8.43-.68-1,.68.17Zm-17.53,35.42-.17-.17-.17.34Zm.5,17.88.34.16.17-.67-.68.17Zm0-4.9.51-.16-.51-.34Zm.34-72.51-.17.34h.34l.17-.34Zm0,15h.34l-.17-.34Zm1,38.28-.17-.17-.17.34Zm1.18-56L185,270l.34,2.2.67.33V272l.34-.34,1.69.51v-.34l-.51-.51-.84-.16ZM185,331.55l.51.5h.67l.34-.5-1.52-.34Zm1-47.73-.33.17-.51.85.34.5V285l.5-.33.34.84-.5.67.16.34,1.18-.17-.16-1-.68-1.52ZM186,310l-.5-.33-.17.33.51.34Zm-.67,16.36.17.51.5-.17-.16-.68h-.34Zm.34-65.43.67.67v-.67l-.5-.34Zm1.85,19.05v-1l.34-.67-1.18.5-.84,1.52h1.51Zm-1.35,12.48,1.35-.33-.34-.51-1,.34-.33.5Zm.17,3.21.17-.17-.17-1-.5.5.16.68Zm.17,51.94.17-.84h-.34l-.34.5.17.34Zm-.34-58.86,1.18.34-.33-.67h-.85Zm.17,29.52-.17-.34v.5Zm.17-53,.34.17v-.5h-.51Zm1.18,70.49-1.35-.33.34.5,1.18.17Zm-.67-73.19.16-.16-.5-.68-.17.68Zm-.51,4.39.17.17.34-.17-.17-.34h-.34Zm1,28.84-.84.33-.17.68.84,1h.34l-.34-.34V297l.51-1Zm.51,18.72,1-.34,1.35.17.34-.34.16-1.18-.67.67h-.34l-.33-1h-.34l-.17.51-1.86-.84-.67.16v.51l.34.34.67.17.17-.51.34-.17.5,1.52h-.67l-.17.5Zm-1,37.43-.34-.16-.17.33.34.17Zm-.34-46.88.5.34.68-.17v-.34l-.51-.33-.67.17Zm1.52,12.14.17-.67-.34.17-1.18-.51.17,1Zm-1.18,12.65-.17-.33v.33Zm.33,11.64.34-.34-.51-.5-.33.84Zm.51-29.85-.17-1-.67-.34.5,1.52Zm.34-55.65-.17-.34h-.51l-.34.51.85.33Zm-1,34.23.34.17.34-.34v-.33l-.68.16Zm.51,42.16-.34-.17-.17.51.51.17Zm1.18-72.51h-.84l-.51.5-.17.51.34.34h.34l.5-.51.68-.17,1,.34.51.84-.68.51.68.17,1-1.52-.85-1-.16.17-.51-.17-.67-.85-.17.34.17.51-.34.17Zm-1.18,38.95v-.33h-.34v.5Zm-.17,34.57h-.17v.51l.51-.34Zm.51-69,.67-1h-.33l-.85.67v.51l.51.17Zm0,87.69h-.51v.34l.51.17Zm-.17-13.83-.17.34h.34l.17-.34Zm.84-80.44-.33-.33h-.34l-.17.33Zm-.67,48.4-.17.34.34,1.18v-1.35Zm0,33.39.17-.33-.17-.17-.17.33.17.51Zm.34-63.91h-.34v.34h.34Zm0,61.38-.17-.16-.17.33Zm.5-43.84-.5.67-.17.68h.84l.51-.51v-1.52Zm-.67,18h.5l-.5-.17Zm.67-44.52-.5.34V268l.67-.17-.17-.67.34.17.34-.17v-.34Zm.34,1.18h-.84l.16.17.51.51,1.18.5-.17-.67Zm.17,28.16.5-.67-.17-.67-.5.33v.68l-.84.5.33.68.51.33.34-.16v-.68Zm-.68,13.33-.17-.17-.16.34Zm1,50.93-.67-.68-.51.34,1,.67Zm-1-97.65.17,1.52.68-.17-.17-1.35-.51-.33Zm.51,17.37v-.17l-.51.34.17.51.51.5,1,.51.34-1-.17-1.52Zm0-2.53-.17-.16-.17.33Zm.17,43-.34.33-.17.68.51.34.33-1.35Zm-.34,2.36.34.17v-.34l-.51-.17Zm0,22.09.84-.17,1.52,1V345l-1.18-1-1.18-.51-.17,1,.17.85Zm.67-88.37-.5.17-.17.68h.34l.84-.68-.17-.34Zm-.67,23.44.34.34-.17-.34Zm.51,56.84-.17-.34h-.34V337Zm.67-63.58-.17-1-.5-.34-.34.5.34,1.19Zm-.84,10.12-.17.33.17.17.33-.33Zm.33,58.35-.33.16-.17.68.67-.34.17-.34Zm2.53,17.87-3-.17,2.7.34Zm-2-104.39-.67.34-.17.34.67.17,1.18-.85Zm-.67,25.13h-.17l.5.17Zm.16,7.93.34.17.34-.34-.68-.17-.33.34Zm0-12.48h-.16v.33h.33Zm-.16,33.39.16.34h.34l.17-.34-.34-.34Zm.84,8.77v-.34l-.34-.17-.5.51.16.33Zm-.51,1.52.17-.17-.34-.17-.16.5Zm1.69,6.07.17.16,1-.16.51-.85-1.52.34L192,324l.5-.67-.84-.85,1-.34.17-.84-1,.51-1.35.33.34.68v1.35l-.68.34-.5-.17v.33l1.34.17.51.51Zm-1.86-55.32.17.34.51.17-.17-.68-.51-.17Zm.17-17.37v.34l.34.17.34-.34Zm.51,38.45.67-.34.34-.67-1,.34-.34.5Zm.17,18.72h-.34l-.17.68.34.16.67-.33.17-.51-.34-.34Zm-.34,16.36.34.17-.17-.34h-.34Zm0,5.06.67.17.17-.34-1-.17Zm.51,4.21,1.68-1.18v-.33l-1.52-1-.67-.17-.17.67.84.17-.16,1.35Zm.5-76.56.17-.34-.51-.67-.67.17.17.67.5.34Zm-.84,42.67.34.17.16-.34Zm1.35,16.19-.17-.17-.51.17-.67,1.18,1.52-.17v-.68Zm-1-57.34-.17-.17.17-.17.33.17v.34Zm.5,11-.67-.17v.34l.67.17Zm-.17,56-.17-.17-.16.34Zm-.33,8.43.16.85.34-.34Zm1.85-51.77.17-.17-.17-1-.84.67-.34-.16-.34-.68.17,1,1,.51Zm-.84,5.23-.34-.34h-.34v.34l.34.33h.34Zm-.68,6.74h.51l.17-.67-.68.17Zm0,13.33.17.33.17-.67h-.34Zm0,32.54h.17l.17.68.34-.17L192,342l-.51-.5Zm0,23.44.51.17-.34-.5ZM192,270l-.17-.16-.51.16v.34l.34.17.51-.17ZM191.44,288l-.17.34.17.33.68.17v-.5l-.51-.51Zm.34,27.15.17-.51-.34-.16-.34.16V315l.51.51Zm-.51,29.18,1.52,1V345l-.84-.51-.17-.5.34-.34-.68-.17Zm.17-85.84H192l-.17-.34h-.34Zm2.36,5.73-.34-.34-2,.34,2.19.34Zm-2.19,59.36h-.17v-.33Zm1.18-69.14-.84.67-.34,1,1.18-.85.34-.84Zm-1.18,2.7.34.67h.5l.34-.84.51-.17.16.51.68-.17.17-1.35H194l-.34.17-.33.67-1.69.17Zm0,56.16.67.33-.16-.67h-.34Zm.34,17.2.17-.17-.34-.17-.17.51ZM193.63,259l.51.34-.68-.67-1.34.5-.34.68,1,.33.51-.33V259Zm-1.35,8.1v-.68l.34-.5h-.5l-.34.5.17.68.5.34Zm-.16,60.54-.17-.17-.17.34Zm-.17,11.8h.33L192,339l-.17.34Zm.5,10.12-.17-.33-.33.16v.34Zm-.17-71.84-.16.17.16.34h.34v-.34Zm.34,30.36v-.34h-.34l-.16.34Zm-.17-34.4.34.5h.34v-.34l-.51-.5Zm.34,2,.34-.17.33-.67-.33-.17-.51.33-.17.68Zm.17-13.16.5-.5-.67-.17-.17.51Zm.67,56.5.68-.17.17-.84-.34-.17-.34.5-.67.17-.51.51Zm-.5,24.28.17-.17-.51-.5-.17.67Zm1.18-48.23-.51-.84-.67.17-.17.67,1.18.34Zm-.85,34.24.17-.34-.5-.34v.68Zm-.16-72.69v.17l.33-.17Zm.33,15.52,1,.17.68-.17-.51-.51-1.35-.17-.16.51Zm.17,15-.17-.17-.17.33Zm0,26.81.51-1.35-.17-.84-.68,1.18v1l.34.34Zm-.17,36.43.34-.17-.34-.17Zm.34-96.8-.17.67h.34l.17-1.52-.17.85Zm.51,62.39.16-.67-.5-.17-.17.34.34.67Zm-.17,6.07.17-.67h-.34l-.17.67Zm0-51.6-.17.68.5-.17.17-.68-.33-.17Zm.5,16.53.51.17.17-.34-.17-.34-.68-.34-.5.17Zm-.17,14.5-.33.34.5.17Zm1,46.38-.17-.34-1.18.51,1.35.5Zm-.34-85.17-.84.85.5,1.18-.17,1,.34.17,1.35-.51.51.84h.33l.17-.33-.67-.85.67-.16v-.34h-.67l-1-.68-.17-1.18Zm0,11h-.68l-.16.33.84.17Zm-.84,49.41.5.5.51-.33-.85-.51Zm.33,11,.51.17v-.34l-.34-.34h-.34l-.16.34Zm.51-82.8-.17-.34-.34.17v.33Zm.34,2-.68-.51-.17.68.68.17Zm0,84.83-.17-.34h-.34l-.17.34.68,1.18Zm.5-80.95-.33-.68-.68-.16.17.67.51.51h.33Zm-.84,84-.17.51h.34l.17-.34Zm.51-39.12-.17-.17-.34.34.34.16Zm-.17,34.4.17-.51-.51.17.17.68Zm.33-7.76.34-.17v-.33H196l-.33.33Zm-.16-49.07h.33l.17-.34-.17-.34h-.33Zm.84-1.35.34-.17v-.34l-.34-.33-.68.16.17.68Zm-.17,34.4-.34.17v.67l.34.17.34-.84Zm.17-57.67-.17-.17-.17.33Zm.67,4h-.67l-.17.51.84-.17Zm-.5,70.33-.34.33.17.34H197l.16-.67Zm.33-5.57-.33-.34-.17.51Zm-.16,2.87-.17-.17-.17.34Zm1,5.06-.51-.34-.67.67,1.18.17Zm-1,6.74h.33v-.33l-.5-.17v.33Zm.33-62.06-.17-.17-.16.34Zm.34-23.44-.17-.33h-.34l.51.67Zm.51,101.19-.17-.34-.68-.17.85.84Zm.16-90.9.17-.34-1-.34v.68Zm-.67,49.24v.34l.34-.17Zm.34,36.93.17-.33h-.34l-.17.33Zm.5-56.15-.5-.34-.17.51.67.16Zm2-42.67h.33l.34-.34v-.5l-3.2.17,2.19.5Zm-2.36,1.18.5.17-.17-.51Zm.33,19.4.51.33.17-.84-.51-.34-.5.17v.68Zm.51,22.76-.34-.17v.34l.34.17Zm.17-3.88.5-.33-.16-.34-.68.17v.33Zm0-32-.17.17.17.51.5-.85Zm.17,1.69-.17-.17-.17.34Zm0-6.07.17.33h.33v-.67h-.5Zm0,19.9.67.33-.34-1h-.33Zm.5-7.42-.17-.17-.16.33Zm-.33,31,.33.16v-.16Zm.67-34.58-.34-.16-.17.33.17.34h.34Zm0,31.71.17-.68H200l-.34.51.17.34Zm.51-23.61-.17-.51h-.34v.51Zm-.17,2-.17.34.5-.34Zm.84,1.86h.67v-.34l-.33-.34-.34.17Zm1.69,13.15.17-1-1.19.17.17-1-.17-.85-.5.17-.17,1.35.51.34-.17,1.52.84.5.51-.33ZM201.73,267l-.17.34.34.17.16-.34Zm.84,21.42h-.34l-.17-.34h.68Zm-.34-4.56.68.68,1,.17.84,1,.68.34.84.84.17.67h.67l.51.34-.17.68.34.5,1,.17v-.67l-.34-.68-.67-.67-1.35-.68-.68-.67-.84-1.35-1-.17-.17-.34-1.18-.5Zm.68-17.37-.17-.33-.34.16v.34Zm-.34-18.72.68.68.16-.34-.84-.84Zm0,31.54.17.51.67-.51Zm.51-21.08.17-.67h-.34l-.17.67Zm1,3.88-.34-.34h-.34l-.16.34.5.5.34-.16Zm-.34,6.07.17-.34h-.34l-.17.34Zm-.17,5.9-.17.51.51-.51Zm0,19.56.68.68.33-.17-.33-.67-.34-.17-.34.17Zm.51-20.57v-.34h-.34V273Zm-.34,4.55.68-.16-.17-.34-.51-.17Zm1.86,10.29.84.34-.17-.51-.51-.34-1,.34-1,1.86h.68l.84-1.52Zm-1.69-24.62h.34l-.34-.34Zm.34,6.74.17-.16-.51-.17V270Zm0,33.06.33-.17.17-.67-.5.16-.17.68Zm.84-34.91h-.34l-.17.51.34.16.51-.5Zm0,5.57-.17-.17-.17.33Zm-.34,24.11h.34l.51-.51-.34-.16-.51.33Zm.85,11.64-.51.33.51.34.33-.5Zm-.17-33.23-.17.17.17.34h.33v-.67Zm.33,44.19-.33-.17-.17.17.17.34h.33Zm.17-26.14h1.18l.34-.34v-.34l-.67.17-1-.67-.16,1Zm-.17,8.26-.16.34.33.17.17-.34Zm1,8.77-.85-.17-.33.51.16.34.85-.34Zm-.17-33.39-.51-.5-.34.16.17.51.68.17Zm0,47.89v-.33l-.68-.17V326l.34.17Zm.17-60.71-.68-.67.17,1,.51.51Zm.17,3-.34-.34h-.51l.34,1,.51.17Zm-.51,47.56-.17-.17-.17.33Zm0-31.54.51.84-.17.34h.5l.68-.5v-.34l-.85-.84-.84.16Zm0-8.94.17.17.17-.34Zm1.18-21.92-.84-.34v.34l1,.84.17-.84ZM209,299.17l-.34-.51-1-.16-.67.33-.17.51,1-.17,1,.51Zm-1.86,6.58,1,.84.16-.67-.67-1-.84.85Zm-.33,4.72.17.34h.33v-.51l-.5-.34Zm1,2.36-.84-.51v.51l.67.34Zm-.17,2.36-.17-.34.34-1h-.34l-.5.51v1l.67.34Zm.17-22.43-.34-.5-.17.5.34.17Zm.17,4.72h-.34V298l.51-.17Zm.5-21.41-.67-.17v.33l.67.17Zm-.33,27.82.33.17,1.18-.51.51.17.34.68.33.17-.33-1,1.18-1h-.34l-.67-.5-.51-1.86.17-.5-1,.33.33.51.17.84-.5.34-.85.17,1,.5-.17.34-1.52.84Zm0,13.66.16-.34h-.5l.17.51Zm-.17,11h-.17l.34.34Zm.84-38.11-.17-.34h-.34v.34Zm.17,24.28-.17-.33h-.34v.33Zm-.34-7.75.17.33,1.18.34,2-.5.68-.68-.17-.5-.84-.68-1.52-.17-.67.51.16.17h1.52l.51.33.17.51h-2.36l-.51-.34Zm.51-29.51h-.34l.17.33.51-.17Zm1,33.55-1.18.51-.17.84,1.69-1.18Zm-.51,25-.33-.5-.17.67.5.17Zm-.33-63.24.67.17.17-2-.84,1.52Zm1.35,18.05.5-.17.17-.68-2,.85.33,1.68.51.51,1,.51-.34.5,1.35-.5.85-1-1-.33-.33-.51.17-.34-1,.85h-.33l-.34-.34.51-.68Zm-1,4.38-.16-.17-.17.34Zm.34,14.67-.5-.33-.17.84.67-.17ZM210,282l-.17-.34-.33.17v.34Zm-.17,6.41h-.33l.33,1h.34l.67-.51ZM209.65,313l.17.5,1.18.17.34-1-.84.51-.68-.51Zm.17,6.91h.68l.17-.33-1-.34v.5Zm1.35-1.35-1-.5.51,1,.5.34Zm-.67-9.27.33.84,1.18-.67-.16-.51h-1.18Zm0,29.17.33.17.51-.17-.84-.33Zm.33-3v-.34h-.16v.34Zm0,6.41.34-.17.17-.68-.67.68Zm5.06-24.46-.5-.84.17-.84-.51.16-2,1.86-.85-.34-1.35-.17v.51l.51.17,1-.34.17,1.18-.51.34v.34l.51.5,1.18-.5-.34-1.69.34-.17h1.69v.34l.5.17ZM211,322.27v.34l.68.17v-.51l-.51-.5h-.34Zm0,6.41.17-.34-.34-.16v.5Zm.34-5.39-.34.5,1.69.68.17-.34-.51-.68-.84-.5Zm2.36,5,.17.68.51.34.67-1.52.84.17-1.18-1-.5.84-.34.17-.84-.68-2-.84.34.84.67.34.34.51,1.35-.17ZM211.51,344l-.51-.17.17.34.51.17Zm.5-46.72-.16-.33h-.34l-.17.33.17.34h.34Zm.17,3.88-.67.17.17.51.84-.51Zm.68,34.07-.68-.17-.5.51.5.33.68-.33ZM214.71,309h-1.35l-.33-.17-1.18,2.53.33.68,1.69-.85-.34-.17-.17-.5.68-.84.5-.17-.16,1.68h.67l.84-.5.17-.34.68-.17.17-.34-.17-.16-.51.33-1-.17-.34-.67Zm-2.19,45.2.17-.34-.34-.17-.17.17.17.51Zm.84-32.72.17-.34-.33-.33-.85-.17.34,1,.34.17Zm-.67,9.61-.34-.33v.67h.51Zm0-5.73-.17.17.17.33H213l.17-.67-.34-.17Zm1-12,.17-1.18-1,.33.34,1,.67.17Zm-.84,20.74h.67v-.34l-.33-.34h-.34Zm.34-26.31.16.17.68-.34-.51-.34-.5.17Zm.5,7.25-.5-.34L213,315l.67.68.68-.34ZM213,342.34l.17.34.67.17.17-.34-.34-.67L213,342Zm.67-46.71v-.34l-.5.51Zm0,9.78-.5,1.18.5.17.68-.51.33-.67v-.51l-.33.17-.85-.17Zm0,31.54-.17-.17-.17.33Zm.84,7.75.17-.84L214,344l-.17.67ZM214.38,302l-.17-.17-.17.34Zm2.19,5.9-.68-.68-1.18-.16-.5.5h.84l1.35.85.34-.17Zm-1,11.8.67-.16-.67-.68-1.35.51v.33Zm-1.18,29,.33-.17-.5.17Zm.5-22.6.17-.17-.34-.33-.33.67Zm2,15.18.67.67,1-.16.85-.51.5-.84-.34-.17-.84.34-.17-1-.5.34-.34-.17-1.35.17-1-.51h-.68l-.17.68.51.17.17,1,.5.34.51-.51.68-.17Zm-1.69,5.4.34-.34-.34-1-.51.84.17.51Zm2.53-14.34.84.85.68,1.51,1.18.51-1.18-2.19v-1l.33-.5-1.51-.51-.51-.84-.67-.17-1,.17-.5.67.33-.16,2.2.67-.17.34-.68.17-.67-.17-.51.33.51,1v-.51l.67-.17.17,1,.34.51-.84.34-1-.34-.67,1,.84-.34,1.35.51.34.51-.17.67-.84.51.34,1,.5.34,1.52-.17-.17-.34.17-1.35-.51-.51-.5-2.69-.34-.68Zm-1.69-18.72,1.18-1v-.34h-1.35l-.33.17.16.51-.5.17.67,2.19.85-.17v-.67l-.51-.51Zm-.17,23.95.17-.34-.34-.33-.5.33v.34l1.85,1.85.17-.33-.17-.34-1.18-.84Zm-.5,11.13.17.17.5-.51h-.84Zm0-50.93.33.17.68-.17-.17-.34-.51-.17-.33.17Zm2.36,25.3-1.69.5v.51l.34.34h.51l1.18-1.35ZM216.57,344l.67-.68-.17-.33-.84.67V344Zm0,2.36-.17-.17-.17.34Zm.67-39.29-.33-.68-.51-.17v1l.84.17Zm.51,20.4-.68-.34-.5.51.17.17h1Zm-.51-6.74.34-1-.34-.16-.5.5.17.68Zm-.17.84-.33-.17v.34Zm.34,8.09.34-.16v-.34l-.34-.17-.5.17v.5Zm2.87-4-1.18-.34-.51-.68h-.5l-.85.68.68.17.17.5-.51-.17-.34.17.34.85h.34l.5-.51h1.52l.34.17-.34,1.35.34.5,2.87-1.18.16-.5-1.18.17-.5-.17.5-.85-1-.84-.5,1Zm-2.7,11.63.17.34h-.34l-.17-.34Zm1.35,11.13-.68-1.85h-.16l.33,1.52.34.5Zm0-25.63.34-.34-.85-.17-.17.34Zm-.17,21.75.17.34,1,.17v-.34l-.67-.5.33-.17.17-.85-.33-.5-1,1.69Zm-.17-35.92.34.51.17-.17-.34-.5Zm.34,21.42.34-.5-.17-.68h-.34l-.17,1.18Zm.17-23.61-.17-.84.17-.17.34.34-.17.84Zm.5,58.52-.16-.34h-.34v.34Zm0-14.5.17-.34-.5.17.33.34Zm.17-31.71-.17.68.51.84,1.18-1.18-1.35-.51Zm.68,11.13.67,1.18-.67.17-.17-.67-.51-.34v.67l.68.85h.67l.34-.51-.17-1.35-.67-.33-.34.16ZM220.28,314l.17-.17-.34-.17-.17.51Zm.5,26.14,1.52-1,.51-1.18h-.34l-1.85-1.52-.68.34.17,1,1-.17.34.51-.34.33-.34-.17-.33,1.35.17.68Zm-.67,11.3.67.17-.16-.34-.68-.17Zm.17-4.39.34-.5-.51.33Zm.17-1.68.5.17.51-.34-.51-.34-.67.17ZM222,312.49l-.5-.5-.51-.17-.33.17.5,1,.84-.17Zm-.16,21.25-.17-.17v-1.18l-.68.34v.67l.51.68h.5Zm-.51,17.54-.17.67.17.68.51-.17v-1.18l-.34-.17Zm1.18-31.7-1.18.16v.34l.84-.34.85,1.18.5.34.68-.17v-.33l-.68-.17v-.34l.34-.17.84.51v-.34l-.5-.51.17-.33-.85-.51-.33.68-.34.16Zm3,26.3h.33l.17-.5-1-1.18-.17-.85.34-.33v-.34h-.84l-1.52.67V343l-.51-.34-.84.67-.17.68,1,.34.34.5v.84l.51.17.33-.17v-.5l-.5-1,.17-.34h.67l1.35,1.52-.34.67ZM222,348.24l-.16-.33h-.34v.67h.5Zm0-15.68,1-.17-.17-.84-.85.17-.33.67Zm1.69,8.6-.5-.34-1.52.34.17.34.67.34,1.18-.34Zm-1.85,7.93.16.5h.34v-.5Zm.33,5.9-.17-.17-.16.34Zm.17-45.87-.17.17.17.34h.34l.34-.85Zm.51,53.29-.34-.17-.34.51Zm1.35-38.79.67-.5-.67-.17-1.18.84-.51-.5v.84l.51.67.67.17.34-.67v-.51Zm-.51,37.95-.17-.17-.67.17v.5l.5.17.34-.34ZM223,311.48l.5.34.17-.34-.5-.34Zm.17,10.79L223,323l.67-.17.17-.51Zm1.68,10.29,1.35-.17.67-.5-.16-.85-1.52-.17-.68.34-1.51-.67,1.51,2.19Zm-1-15.18h-.34l.34.51.34-.68Zm.34-8.6-.34.17.17.34.5-.51ZM227,328l-.17-.34L224,326l-.17.68,1,1-.5,2.19.5.34,1-.34.34-.5L226,329h-.34l-.16.34h-.34l-.17-.51.34-.34,1.68-.33Zm-2.69,7.59.5-.34-.17-.68-.5-.33-.34.67.17.68Zm.16,28.83-.5-.5-.17.33.67.34Zm-.33-63.91v.34h.33l.17-.34-.33-.34Zm.84,48.23.17-.34h-.34l-.17.34Zm1.35-13.66h.5l1-.84-.51-.51-.51-.17-.67.17-.51-.5-.67.16-.17.34,1.18,1.18Zm-.84-23.61-.17.34h.33l.34-.51Zm.33,14.67L226,326l-.5-.33-.17.67Zm.85-22.26-.17-.34-.51-.16v.5l.68.34Zm-.68,3.54.17.34h.51l.33-.67-.33-.17-.68.17Zm.17,6.41-.17.34.51-.17Zm.51,4.05h-.34l-.34.67h.68l.33-.5ZM226,339.14h.51l-.17-.34H226Zm.51-37.27-.34.67.67.17.51-.5H228l1.18-1.19v-.33l-.51-.17-1,1.18-1.18-1Zm.33,14.67-.67-.17.34.68.67.16Zm.17,5.06-.5-.17-.34,1.69h.67l.34-1.18ZM226.69,288l.16-.51-.33-.17-.17.85Zm.16,21.08-.33-.17.17.51Zm0,33.56.68.17L227,342l-.5-.16v.84ZM227,324.8l.68-.5.17-.68H227l-.33,1Zm0,.85.34-.85-.67.51v.34Zm.34-27.49-.51-.51.34.68Zm.84,6.74-1,.17h.34l.34.34.5-.17ZM227.36,287l.34.84.67-.17-.17-1Zm.51,9.44.33-.17V296h-.5l-.17.5Zm-.34,14.5.67,1,.51-1-.67-.5-.51.17Zm.84,1.69-.17-.17-.67.34v.34h.84l.17-.17Zm.34,4.22.17-.17-.34-2.53h-.67l-.34,1.35.34.84.5.51Zm-1,2,.34.17-.17-.51-.34.17Zm.34,7.76-.51.5.67.17.17-.5Zm-.17,3.37-.17.34.17.84.67.17.17-.51-.17-.84-.5-.17Zm0-26.31.5.85,1.35.5-.67-1.18-1.18-.84Zm.33,25,.17-.34L228,328l-.17.67Zm-.16,3.71.84.68-.51-1h-.5Zm.33-55.31.51.34.17-.34-.68-.68Zm.51,5.56.17-.33-.68.33Zm-.34,7.76h.34l-.17-.34Zm.17,34.4h.34l-.34-.33-.17.16Zm-.17,14h.34l.17-.34h-.51Zm1.69-30.86-.17.17-.68-.17.51-1.18-.34-.17-.84,2.19.51.51h.5l.84-1.52Zm-1,5.56,1-.5.67.5h.34l.17-.33-.68-.85h-.33l-.51-.5-1,1.35Zm-.17,13.5-.17.84.5.5.51-1.18v-.67h-.84Zm.33,19.89.34-.33v-.34l-.34-.17-.5.51.17.33Zm-.16-72.51-.17.34h.33v-.17Zm1.85,41.82.68-.34-.51-1.18-1-.16-1.18.5,1.51.34v.84Zm-2,1,.5-.16-.5-.17Zm1.18,15.18-.34-.5h-.34l-.5.84.17.34.67.33.34-.5Zm-.34-9.44.67-.34.34-.51-1.35.17-.33.68Zm0,19.56.51-.17.5-.5-1,.16-.67-.16.33.67Zm-.51-11.64.51.34.84-.84-.17-.34-1.18.34Zm.17-44.35v.34l.51-.17ZM231.41,302l.17-.34-.51-1-1.52-.85v.34l1,.68.17.84-.33.51.16.16.51-.16Zm-1.18,27.32.33-.34-.16-.51-.68.17v.51Zm0,9.27.17,1.35.5-1.52h-1Zm.33-39.63.34-.17-.34-.5h-.33l-.17.67Zm-.5,11.64h.34l-.34-.34Zm.67-15.52-.33-.17-.17.51h.5Zm.34,23.44.17-.33-.34-.17-.34.17-.16.5.33.17Zm0-15.68-.17-.17-.34.51.51.33Zm.17,38.11v-.33l-.68-.17v.33l.51.51Zm.67-18.38.85-.84-1-.85-.68-.16-.17.5.34.51.67-.17.17.17-.5.67-.17,1,.34.51.67-.17v-.5l-.51-.34Zm.34,3.88.17-.51-.17-1-.67,1.18h-.68v.17l1.18.51Zm-.5,11.13.16-.34-.33-.5-.68.17.34.67.34.17Zm-.34-40.31-.17-.16-.17.33Zm.34,6.41-.34.17-.17.51h.67l.17-.68Zm.16,26.14.34-.84-.17-.68-.5-.16-.17.33.17,1.35Zm.68-35.75h-.34l-.5.68.5.33.68-.84Zm-.68,13.66.34-.17-.34-.17Zm0,1.35v.17l.51.17v-.68h-.34Zm1,5.9.67-.17-.17-.67h-.67l-.51.5Zm-.51-12.31.17.34h.34l-.17-.68h-.34Zm.34-28.84.33.17v-.33l-.33-.17Zm.5,31.88h-.33l-.17.67h.84Zm-.5,25.46.17.51h.5V331l-.5-.17Zm.33,1.86.17-.17-.33-.17-.17.51Zm.17-31,.34.17.17-.51-.51.17Zm.51,2.86-.17-.16-.17.33Zm.34-32.54-.34-.17-.17.33.68.17Zm-.51,7.08.34.17.34-.17-.17-.34h-.51Zm0,8.09.34.17.17-.5-.51-.34Zm.34,20.92-.34.5.34.17.34-.17v-.34Zm-.34,4.38h.34v-.51l-.34-.16Zm.51,12,.33-.17.34-.67-.67.17-.51.67Zm-.34-21.08h.51l-.34-.33Zm.34,12.48h.5l.17-.34-.34-.33-.5.17Zm.17-31.87-.17.34.84.17.17-.51Zm.67,33.39-.34-.51-.5.17.33.51H235Zm-.17-27,.34-.34-.34-.17-.34.17v.34Zm-.17-26.48.34-.17-.34-.17Zm.17,42.67-.17.67h.51Zm.51-6.07-.51-.34v.34l.34.16Zm-.51,2.19h.34l-.34-.84Zm1.35-46.21-1,.17.17.34.5.17.68-.68Zm-.84,24.29-.17.33.5.34.17-.67-.33-.17Zm.33,14-.16-.17-.17.17.17.68Zm.17,17.37.17-.67-.67.17.17.67Zm-.17-46.37.34.33.68.17-.34-.67-.68-.17Zm0,23.27.34-.17-.34-.34Zm1-38.11-.68-.17-.17.33.51.34.34-.17Zm-.68,2v.34h.34l.17-.34Zm.51,62.06H236l.17.34h.34Zm.67-36.09-.67.17-.34.5,1-.16.17-.68Zm-.34,17.2-.33-.17-.34.17.51.51.16-.17Zm-.16-14.67-.17.67.33-.16.51-.85Zm.84,2.87-.34-1-.67-.17L237,285h.34Zm-.34,7.92v-.33l-.5-.17-.17.33.5.51ZM237,272.36v.33l.34.17v-.34Zm.17,16.35.51.17-.51-.5Zm.51,9.45.17-.17h-.34l-.17.34Zm.67-30.19-.17-.34h-.33l-.17.51.67.17Zm-.17,22.94-.33-.17-.17.5h.5Zm.85-14.68-.17.34.34-.17.16-.84-.33-.34h-.51Zm-.34,7.76.34.34.33-.34-.5-.33Zm1.69-27.49-.68,1.18-.84.85.67.17,1.35-2h.68l-1.18-1.18Zm-1.18,38.12.5-.17v-.34l-.67-.34-.17.68Zm0-40.14v.34h.33l.17-.51-.34-.17Zm.5,5.23-.34-.17-.16.34.5.33Zm.17,5.56h-.34l.17.85.34.16.34-.84Zm.34,5.91.5-.51H241l-.17-.68-.67-.33-.51,1.35.17.33ZM240,282l.5-.17-.5-.34Zm.67-22.77-.17-.34-.33.17v.34Zm0,13.32.85-.84-1.35.34.17.67Zm-.5,18.72.84.34-.84-.84Zm.84-38.45-.17-.16-.34.16v.34h.68Zm1.86,10.8.33-.85-.33.17-1-.34-.16.68-.51.17v-1l-.68.33.85,1,1.18.67,1,.17.68-.17-.17-.34-1.35-.17ZM241,275.73l-.17-.84-.17.84Zm.51-17-.34.16h.34Zm.33,8.43.34-.17-.17-.84-.5.16-.34.51Zm.34-5.4-.84-.5.17.67.5.17Zm.34,8.6-.68-.5-.33.16v.34l.84.51.34-.17Zm-.34,18.05h-.5v.33l.67.17Zm-.5,5.06.67.16-.17-.67-.5-.17Zm.84-43-.34.17.34.17.34-.34Zm0,15.18V266l1.69.84v-.34l-.68-.33.34-1.18-1.52.33Zm-.17,7.25v.34l.34-.17Zm.34,37.95-.34-.17.17.5Zm.17-12.48,1,.17-.17-.34-1.18-.51Zm-.17,31.87.84.51-.84-1.35Zm.5-5.9.34-.17.34-.68-.68.17-.33.51Zm.51,2.86L243,327v.33l.51.34.34-.17Zm0-53.62-.51-.51v.51Zm-.51,38.95v.34h.34l.17-.67h-.34Zm.17-50.76.34.51.51-.17-.68-.68Zm.51,79.09.34-.16v-.34h-.34l-.17.34Zm1.35-62.73-.51-.51-.67-.16v.33l.5.68.51.17.34-.17Zm-.68,18.72.17-.51h-.34l-.33.34.33.51Zm-.33-37.27.33.34h.51l-.17-.68-.67-.17Zm.33,12.31h.34l.67-.84.17-.68-.84.51-.67,1.18Zm.34,39.29-.17.17.51-.17Zm.51-48.23-.51-.34v.34l.34.34h.33Zm0,25.64-.34-.34-.17.5Zm-.17,50.08v-.34l-.34.17Zm.84-57.84-.17-.34h-.5l-.34.34v.5l.34.34.67-.34Zm-.67,59h-.34v.34h.5Zm.33-43.51-.33-.33-.17.5Zm.68-.84v-.34l.67-.84-1.35-.17-.33.84Zm-.85,31.37.17.17.68-.68-1,.17Zm1.18-65.94-.5-.51-.68.17v.34l1.18.34Zm-1,18-.17.17.51.51.17-.68Zm0-13.66.17.68-.17.67h.51l.34-.5-.17-1-.68-.16Zm.34,12-.34-.17.51.34.17-.17Zm.51,40-.85,1.69.17.51.51-1.18.67-.34,1,.5h.68l-.51-1.68-1,.34-.67-.17ZM246.42,298l1.18-.34-.17-.34-1-.16-.34.67Zm.33,16.36.17-.17-.17-.51-.5.34v.34Zm3.88,9.27.34,1.69.84.17.68-.34.34-1-1.18.67-.68-3.37,1-.17-.17-1-.33-.34-.34.85-.68.33-.67.68-.17.67h-2.19l-.68-.84h-.5l1,2.36.68-.34.67.17.34.51.84-.17.17-.51-.34-.5.51-.34.5.51ZM246.75,258l-.33.34.33.17.34-.34Zm.85,31.71-.68-1.52h-.17l-.33.84v.68l1.18,1.18.5-.51,1.69-.17,1.35.51-.17-.68-.67-.5-2.36.33Zm-.34,19.39.34.51.34-.51-.34-1,.34-.34.16-.84-.5-.51-.85.17-.33.67.84.51Zm-.34-49.41v-.34h-.33v.34Zm.17,18-.17-.33-.33.16v.51h.5Zm-.5,57h.67l-.17-.67h-.5Zm.67-35.41.17-.84-.68.16.17.68Zm-.34.67-.17.51.51.17.17-.51Zm.68,30.19.67-.84-.84.17-.68,1.18.51.16Zm0-27.66.34-.17.33-.67h-.84l-.34,1,.17.51Zm-.34-28.5.34.34h.34V274l-.34-.33h-.34Zm0,11.47.17.34.67-.17v-.34l-.5-.34-.34.17ZM247.6,340l-.17-.17-.17.34.34.17Zm-.17-29.17v.67l.51.17.33-.17-.33-.84-.34-.17Zm1.35-48.57-.84-.34-.34.34.17.33,1,.34.17-.67Zm-.51,56.83-.5-.34-.17.34.34.51h.33Zm.51-52.11.17-.34-.17-.5h-.84v.33l.84.85Zm-.51,35.92-.33.17v.34h.5l.17-.34Zm0-45.53-.17.17.51.33v-.33Zm1.52,20.74-1,.17-.51.34.34,1,.51.17,1-1Zm-1,19.56-.34.51-.17.84.51,1.18-.34.51,1.35,1.18,1.18-.17,1,.34-.17-.68-.84-1-.67.67H250l-.17-1.51-.34-.51-.17.34H249l-.17-.84.34-.17,1,.33-.17-1-.51-.5-.5.16Zm.34,6.75-.51-.34-.17.68.34.33.34-.17Zm-.34,15.68-.17-.17-.17.34Zm.34-46.71-.51.34.17.33h.34l.33-.33v-.34Zm1.51,3.88.85-1.69.33-.17h1.69l.34-.84-1,.34-.51-.34H251l-2.19.84.17,1-.17.51,1.52.34Zm-1.51,16.35-.34-.5v.34Zm0,8.44-.17-.17-.17.34Zm-.17,6.24.17.17.67-.17.17-.51-1.18.17Zm-.17,4.55.67.34.17-.34-.84-.34Zm0,18v.51l.5.51.17-1-.5-.33Zm.17-69.81v.33l.5.51.68.17.33-.51h-.33l-1-.84Zm.67,48.57.17-.34-.34-.34h-.33l-.17.68Zm1-44.36v-.67l-.84-.17-.51.51-.16.5,1.18.17Zm-1,68.3.17-.17-.17-.33h-.5v.5Zm.68-76.73-1,2,1-.16.16.84-.16.67,1.68-1.68-.17.33.17.34.68.17-.17-1L252,258H250.8l-.34-.34.17-1-.33-.17Zm-.68,6.92.84-.17.51-.85-.34-.17-1.35.51Zm0,55,.51-.5h-.85v.67Zm.34,1.18-.34-.17-.17.34.34.34.34-.17Zm-.17-50.76h.34v-.34Zm.84,25.3-.17-.34.17-1-.67.5-.17.51.17.68h.67Zm-.17,10.45.17-.33-.17-.51.85-.51-.68-.67-.84-.17.51.84-.17,1.35Zm-.5,6.75,1.35,1.85.5-.5-1.18-1.35.17-1.86-.67.51-.34,1Zm.34,48.9.16-.67h-.33l-.34.51.17.33ZM250,253.3l.34.51.16-.34-.33-.34Zm.17,13.49.67.17v-.34l-.34-.34h-.33l-.17.34ZM250,326.66l.34.67.16-1h-.33Zm.67-11.3-.17-.17-.33.51.5.16Zm-.33,13.15.67-.33v-.34l-.67-.34Zm0,3.21.16.67.34.17.17-.17-.17-.5-.5-.51Zm.5-32.72-.34.34.51.17.17-.51Zm.68,18.21.67-1.51-.34-.17-.84.67-.34,1Zm-.17,17.37-.34-.16-.34.5h.68Zm-.51-16,.34.34.51-.34v-.33l-.34-.17-.51.17Zm0,18.22V337h.34Zm.17,7.42.51-.17-.68-.17Zm.51,4.55-.51-.51-.17.34.17.51h.34Zm.5-71.67-1,2,3-.17.16-1,1,.34.67-.17.34-.84-1.35.33-.68-.16-1-.68v1.18l-.17.17-.67-1.86-.34-.16Zm-.67,20.07-.17-.17-.17.33Zm.34,17.37-.51-.68-.17.51.51.5Zm.33-41.66-.67-.17-.17.34,1.69.68,1-.17v-1l.33-.5,1-.17.17-.51-2.7-.16v1.34l-.34.34Zm0-10.79-.33.17-.34.67.84-.17.17-.67Zm-.5,37.77.17.17.16-.17-.33-.5Zm.67,46.38-.67-.51.17.68.5.17Zm.17-61.55.17-.17L252,284l-.17.85Zm-.17,6.24-.34.5.68.17.5-.67-.16-.34Zm.84,4.21,2.53-.84-.5-.68-1.35-.16-1.35,1.18-.34,1Zm-.84-34.57.17.17.17-.34-.34-.17Zm0,31.87h.34l-.34-.33Zm1.18-7.75-.5.33-.51.85v.67l1.18.51.34.67-.34-.17-.67.51.33.51h.51l1.52-.68L253.67,286l.34-1Zm1,20.07,1.52-.51-1.18-1.35.17-.51L256,302l-.51-.68-2.19.51-.34-.68h-.33l-.17.34.34.51-.51,1.35.17.67.84-.17.68.68ZM252.49,337l-.17.5h.34l.17-.5Zm0,12-.17.34.51.16v-.5Zm.5,8.26h.17l.17-.5-.84-.17-.17.33Zm-.33-102.53-.17.34h.5v-.17Zm.5-1.52-.33-.17-.17.17.67.17Zm-.33,59.53.33-.17h-.5v.17Zm1.68-50.42-.67-2.19-.85-.68.17,1.18.85,1.18-.85.84.34.51.84-.51Zm-1.18,51.6L253,314l.17.34.34-.17Zm2.36-45.36.17-.51-1.69-2.19.85-.17-1-1.35-.85,2.36h.34v-.34l.34-.16.67,1.35-.84.67-.17.51.17.5.84-.84,1,.34ZM254,321.6l.16-.34-1,.17.17.51Zm-.51.67h-.34v.51l.34.17Zm.17-69-.17-.17-.17.34Zm-.34,17.54.17.17.34-.51-.17-.51-.34.34Zm0,9.61.34.17.34-.17v-.34h-.68Zm.51,34.91h-.34l-.17.34.68-.17ZM254,258l.16-.17-.5-.17V258Zm0,16h.33l-.17-.33Zm.84,10.8-.34-.34-.34.67h.68Zm.34,23.44-.17-.34-.68.17-.17.67.85.34.17-.51ZM255,312l-.17-.68-.68-.5.17,1,.51.5Zm-.34-38.79,1-.51.17-.84-.34-.17-.33.68-.68.33-.17.34Zm-.34,22.26.51.67,1-.16v-.34l-.34-.34-1.18-.17Zm.51-37.94v-.34l-.34.17Zm.51,56.83-.85,1h.34l.51.5.67-.16-.51-1.69Zm0-51.61v-.33l-.51-.68-.17.68.51.67Zm-.51,19.73v.34h.34l.17-.34-.34-.33Zm1.18,8.94-.51-1-.67-.17v.68l1,.84Zm-1,14-.17.67.34.17.5-.17.17-.67-.67-.34Zm.67-31-.67.34.5.17.51-.34Zm-.17,7.25.17-.5h-.5l-.17.33.17.34Zm1,28.67v-.67l-.68-.17-.67.33-.17.34.67.68.51-.17ZM255,331.89h.5l-.16-.34H255Zm1-66.95-.51-.34-.33.17v.33l.67.34.34-.17Zm.17,42.16-.68-.17-.33.5h1l.17-.17Zm-.68-19.74-.16.34.16.51,1.69,1,.51-.17-1.52-.84.17-.85-.17-.5-.34.17Zm-.16,36.6.16.17.34-.17v-.84l-.5.33Zm.5,20.57v-.16l-.34.16Zm-.34,13.5.85.84-.17-.68,1.52-.5h-2.2Zm.34-103.21-.17.33.68.68V255l-.34-.34Zm-.17,5.73.34.34.34-.34-.34-.34h-.34ZM257,280.11l1.69-.5v-.34l-.68-.17-.5.17-.85-.51H256l-.34.51.85.34.16.67Zm4-17.54-.51-.33-1.68.33-.17.68-.68.17-.5-.34.5-.51-2-.5-.17.5.51.68-.51.51v.33l.51-.17.17-.5.5-.17.17.67,1.52.17v-.67l.84-.68,1.69.17Zm-4.89,20.92.17-.34H256l-.17.51Zm.34,11.63.33-.17-.17-.5.17-.68-.67.17-.34.51.17.67Zm-.34,26.82-.17-.17-.17.33Zm.17-36.09h-.17v.33l.5.17v-.67Zm.17-30-.17.34.33.17.17-.68Zm.33,26.64-.5,1,.5-.68Zm-.5,25.47.33-.17-.33-.17Zm0,1.18h.5l-.17-.67h-.33Zm.67-37.27v-.34h-.5v.34Zm0,51.27v-.34h-.34v.51Zm.34-65.77-.51-.34v.34l.34.33Zm.34,33.56-.68-.68.17.68.51.33Zm0-7.76.16.17.68-1-.34-.17-.84,1Zm1.51-21.25-1.18-.51-.17.34,1.19.51Zm-.84,6.07.17-.67-.34-.17-.34.84Zm.51,1-.34-.17-.34.34.51.34.34-.17Zm0,14.84-.34-.16V284Zm1,35.08v-.34h-.34v.34Zm1,26-.34-.34h-.33v.34l.33.34h.34Zm-.34-84.66-.17.34.34.17.17-.34Zm.34,26.31-.17-.5-.17.67Zm.34,7.93.67.17v-.34l-.67-.17Zm.33-2.19.34-.17-.34-.17Z" transform="translate(-101.56 -244.61)" fill="#fff"/><path d="M340.69,289.73l-.17.67v4.22L340,296.3l-.17,2.36-.33,1.35-2,5.06-.33.17-3,5.23-2,1.52-1.69,1.68h-1.18l-.68,1-1.17.84-7.26,2.53h-1.85l-1.18.34-3.88.16-.68.34-.67-.17h-2.7l-.34.17h-1.34l-.34.17h-2.7l-.34-.17h-1.85l-1.35.51-.68,1v1.35l-.84-.17v.34l1.18,1-.17.67v8.44l-.17.33v4.72l.17.34v7.08l.17.34v2l-.5,1.51v4.73l.16.33v1.86l.17.33v6.24l-.17,1.35.17,1.52-.84,1.52-.84.5h-1l-.67.51-3.54-.34-.34.17h-2l-.34-.17-3-.17-.33.17h-2l-.33.17h-3l-2.7-.84-.84-.84-.67-2-.17-3.2.33-.84v-4.05l.17-.34-.33-1v-4.22l.16-.34V346.9l-.16-.34v-1.35l.33-.51L278,344V333.91l.17-.34v-2.7l-.33-1.68.33-3.21-.17-.33v-6.41l-.33-.51.33-1.52v-5.73l-.16-.34v-5.73l.16-.34v-3l.34-1.86-.5-.5v-1.35L278,298V293.6l-.16-.33v-2.7l.16-.34v-1.68l.34-1.52-.34-2.36-.16-3.71.16-.34v-2l-.33-1.69.33-2.36v-7.42l-.16-.34.33-4.55-.17-.34v-4.72l-.16-.34v-3.71l.16-.34v-2.53l.17-.33v-2.87l.51-1.18.5-.51,1.52-.67.17.17h1.69l.33-.17h4.05l.34.17h2.7l.33.17h7.09l2.7-.34,1.68.34h13.49l3,.33,2.87.68,2.86,1,4.22,2,1.52,1.35,2,1.18L333.1,253l2,2.87.34.17v.34l.84,1.51.34.17.84,1.18,1,2.7.16,1.35.51,1.18.17,2.53.67,1.35.34,3-.34,1.52.51,1.52.17,3.71.34.34v4.21l-.17.34v1.35l-.17.34v2.86l.17.34v1.69Zm-62.4,56.15.17.34.67.34-.16-.68-.51-.33Zm.68,13,.16-.34-.16-.17-.34.34Zm.16-42.33.17.34.34-.17-.17-.51h-.34Zm1,42.84-.51-.51-.17.51.51.33Zm1.51-35.25v-.34h-.33v.34Zm0-58.35v.34H282l.17-.34Zm.17,37.27v.17h.34Zm1,17.87.17-.33-.17-.51-1,.17.17.67.68.51ZM283,298.5l-.67-.34-.34.17.17.67,1,1.69,1,.17-1-2.2Zm-.84,9.1h.34l.17-.33-.34-2-.34,2.19Zm.17,19.73-.34.34.34.67.5.34.34-.17.17-.67-.51-.34Zm.17,38.28.5-.67-.33-.17-.68.68.17.33Zm2.36-4.21.34-.17-.34-1,.5-.17v-.34l-.84.34-.67-.67-.51.16-.51.51-.33-1.35-.34.84.17.68.84-.17.17.67.84.17.17.51ZM284,346.9l-1,.33-.67.85H283l1-.51.34-.51Zm-1.18-51.61-.33,1.35h.33l1.35-1v-.51l-.33-.5-1,.17Zm0,7.25.68-.67-.68.17-.33.5Zm-.16,11.3.33-.17-.33-.33-.17.5Zm.16,3-.16-.17-.17.34ZM283,338.8l.34.17-.34-.51-.33.34Zm2-20.57-.68.17-.17.33-1,.51.34,1,.67.17.17-.51h.51l-.17-.33.67-1.18ZM284.7,323l-.34-.17-1,.17-.17.84.84-.34,1,.85-.17.84.67.17,1.18-1.52-.67.17-1-.51-.17-.33Zm-1.18,16.36-.34-.17v.34l.51-.17Zm.17,13.15-.34-.17-.17.34.17.17Zm-.17,4.55.17-.16-.34-.17-.17.5Zm.34,6.24.33-.17.17-.84-.34-.17-.33.17-.34.68.17.33Zm0-93.42-.17-.17-.17.34Zm0,54.47-.34.33h.34l.33-.33Zm.5-50.93-.17-.34h-.33l-.17.68h.67Zm1.18,79.93-.17-.33-.67-.34-.51.17-.5.5,1.85.34Zm.85-49.58.33-.17.17-.5-.5-.34-.85.51-.5-.51-.85-.17-.33.51,1,.84,1.18.17Zm.5,7.93-3-.84.5.84-.5.17v.34l.84,1,.67.17,1.69-1.35.34.5-.85,1.18-.16.85.33.17.51-1,1-1-.67-1Zm-2.19,45.53H284l-.16.68h.67l.34-.51Zm-.34-80.27H284v.34h.51Zm0,50.25.51-.16v-.68l-.68.17L284,327Zm.34,17.21-.34.16-.34.68h.68l.34-.68Zm.17-16,.17-.16-.34-.51h-.34l-.17.67Zm.84,9.62-.17-.17-1.35.5.34.85.68.17.16-.85ZM285,356l-.85-.34.17.68H285Zm-.17-38.62-.17-.67-.34.5.17.34Zm1.18,29-.34-.34-1.35.17.34.51.84.17.68-.17Zm0,12.48-1.35-.34-.34.51,1.86.17Zm-1.18-70.32.17-.17h-.34l-.17.33Zm.17,12h.33v-.34l-.5-.67-.17.84Zm.5,32.38-.84,1.18,1.18-.84v-.34Zm-.5-71.67-.17.33.34.17.16-.67ZM284.87,355l.17.34h.33l-.16-.68h-.34Zm.5-49.07,1.69.5v-.34l-1.35-1.34-.67.67v.67Zm1.18,16.52-1-.17-.5.34,1,.51.67-.51Zm.85,11.3-.17-.17-2.19.34,1.85.34Zm-2,2.36h1.18l.17-.17-1.18-.5-.5.5Zm.34,26.31,1-.84-1.51.17-.17.67Zm-.34-99.33v.34l.34.17v-.34Zm1,53.29.33.17-.33-.67h-.51l-.34.5Zm-.51,2.7-.34.51.17.33.51.17-.17-.67.17-.34Zm-.17-24.79.17.34h.67l-.5-.68h-.34Zm0,6.24h.68l.16-.34-.33-.17-.51.17Zm.84-17.37-.5-.17-.17.68h.34l.5-.51Zm-.16,24-.34-.17-.17.34.34.16Zm.5,19.9-.5-.68-.34.51.17.5Zm0,24.45.34-.17v-.67l-.68-.34-.5.5.5.68Zm0,13.32-.17-.67-.67-.34v.84l.5.34Zm2.36-45.87-1.18-.5-1.85.5,2.36.51.67-.17Zm-2.7,34.57.17-.5-.5.5Zm-.33,5.06.33.17.17-.51-.5-.33Zm2.36-50.25-.34-.85-.67-.16-.68.16-.17.68.68-.17.5.17.51.5Zm-1,33.89-.17-.17-.68.17.17.68.68.34Zm-.51-42.33.84.17-.17-.33-.84-.17Zm-.17,21.93.34.5.67-.16-.84-.68Zm4.55,37.1-.16-1.18-.34-.34-.84.17-1.69-.84-.68-1-.84.68.84,1.85,1-1,2.36,2.36Zm-3.2-43.17v-.34h-.34l-.33.34-.17.67-.34.17.67.34.68.84,1-.84.17.33.51.17.33-.5-.33-2-.51-.16V315l-1,1Zm-.17,17,.34-.84-.17-.85-1,.34-.17,1.18.67.51ZM287.4,345l.17-.51-.34-.33-.17.84Zm-.17,16.7,1,.5v-.5l1.86-.17-3-.17Zm.5-89.55V272l-.5-.17v.34Zm-.5,53.46.5.17,1.35-.17-1.68,1.68,1,.51.51-1.35.33-.17.17.51-.17.84.51.51.17-2.36-.34-.34.67-.17h-3ZM288.92,338l.16-.34-.84-1-.17-.51,1.35-.5v-.68l-.84-.5-.17.67-.68.68-.5,1.18.67.16.68,1.18Zm-.34-48.74-.17-.17-.34.34-.67,1.69,1.18-.17.17-1.18Zm-.68,35.25.51-.51-1-.17.17.68Zm-.5,21.58.33.51,1.52-.51-1.68-.34Zm.5,14.67,1-.5-.34-.68-.85.34-.16.67Zm.34-90.39.34-.17v-.5l-.51-.17-.34.84Zm-.34,3.54.34.34.17-.34-.34-.5-.34.17Zm.51,81.12v-.51l-.34-.16-.34.16.17.51Zm-.34-62.57.34.34h.34v-.34l-.68-.33Zm.34,18.72.34-.33-.34-.17-.34.34Zm1.69,18.39.33.84.51.5.17-1.34-.17-.51-.51-.34-1-.17-1,.51-.17.84.68.51.5-1h.34Zm-1.52,4.21-.17-.17-.17.34Zm-.17,7.42-.17.34.51-.34Zm.17,2,.34-.17v-.34l-.51-.34-.17.85Zm-.17-84.49h.67l.17-.34-.33-.17-.51.17Zm.84,39.8-.33-.17-.34.17.17.5.67-.17Zm-.67,60.37h.5l-.33-.34Zm.5-5.23.68-.17v-.67l-.68-.34-.33.51Zm1,1.35-.68.34-.67.67.17.34.67.17,1.18-.34-.34-1Zm-.85-81.79.17-.34-.17-.17-.33.34Zm.17,30.86-.5-.17v.68l.5.17Zm-.34,12.48-.16-.34.5.51Zm0,16.7h1l-.17-.68h-.68l-.33.51Zm0,6.74-.16.68,1-.51-.51-.51Zm.51-68.13-.51-.17.17.51Zm.17,15-.17-.67-.34-.17-.17.67.51.34Zm-.68,16.19.34-.34-.34-.17Zm0,22.6.34-.17h-.17Zm.51-16.19.17-.17v-1.18l.17-.17h-.34l-.34.34v1.18Zm.34,11v-.68l-.34-.16-.17.84Zm-.51.84.51,1,.67-.16-.34-1-.67-.17Zm1.69-32.55-1-.33-.51,1.35v.67l.67-.34,1.18-1.18Zm-1.52,56.67v.5l.34.51.33-.84-.5-.51Zm.34,2.86.33-.33v-.51l-.67.17v.67Zm.17,2.53-.17-.33h-.34v.33l.51.34Zm1-38.78-1.18,1.18.84.5.67-.17-.16-.67.5-.84Zm-1.18,22.26.33.17,1.35-.85-1.68-.17Zm.17-67.8.33.17.17-.17-.34-.33Zm.33,24.46-.17-.17-.16.34Zm-.33,6.24V298l.67.51.34-.17-.85-1.52Zm.33,64.59.51-.51.17-.68h-.34l-.51.51-.16.51v.17Zm-.17-101.36.85-.33-.34-.17-.51.17Zm0,2.87.34.51h1.52l1.35.16.84-.16.51-.34v-.34l-.17-.17-1.69-.5-.67.17-.17.84-1.69-.34Zm0,37.78.51.33.34-.17-.17-.5-.68-.17Zm.51,9.78-.51-.85.51,1.35Zm.17-16.7-.51.84.17.68.34-.17.5-1-.5-.68Zm-.17,25.3,1.18.33.17-.84-.34-.34-.67-.16-.51.33v.34Zm0,13,.51.68,1,.17v-.34l-1.69-.84Zm.84-66.95-.84.17.17.68.5.16.17-.33Zm.17,84v-.33l-.67-.17-.17.5Zm-.17-35.07-.33.17-.17.67.5-.17.34-.67Zm-.5,24.11.5.51,1.18-.51.85.17-.34-.67-.34-.17-1.85.34Zm.84,17,.17-.17v-2h-.34l-.5.51-.17,1.35.5.34Zm.17-96.47-.68.34-.16.34.67.34.51-1Zm-.68,69.65.85.17v-.51h-1Zm1,13,1-.17.17-.68-.34-1-.67-.17.33.68V341l-.33.17-.51-.17-.68.17v.34l.34.34h.34Zm.84-71.84-1.69-.51.17.68,1.18.5.68-.17.33-.5Zm-1,15,.34-.17-.51-.17-.51.17Zm-.34,3.37.17-.17-.34-.17-.17.51Zm1.69,1.35-.85-.34-.84.51-.17.33.34-.16,1,.16.68-.16Zm-1.35-21.08h.5l.17-.34h-.67l-.34.51Zm0,29.68,1-.17.84-1.18-1.85-.34L292,298Zm.34,13.32,1-.17.5-.5h-1.35l-.67-.34-.17.34.51.84Zm.67,9.78.17-.17-1.52-.17,1,.51ZM292,326.15l.68.68-.17.67.5.34v-1l-.33-.68-.51-.33Zm.17-62.73v.34l1-.17Zm.34,59.87h-.34v.33h.51Zm.17,34.57-.51-.17V358l.51.5Zm0,3-.17-.34h-.34l.17.68h.34Zm.16-8.43-.16-.34-.34.17v.34Zm-.16-61.22-.17.34.33.17.17-.34Zm.33-14.33-.17-.17-.16.34Zm-.33,26.81,1,.17.5-1.35-.67-.17.17-.5-1-.84Zm1.85,9.78-.34-.5-.67-.34-.84.17v.51l1.51.84Zm-1.35,29.18-.34-.51-.16.51Zm0,2v-.17l-.34.34Zm0-15.17.17.33H294l.17-.5-.33-.17-.85.17Zm3,15.51.67-.67-.67.16-2.87-.33,1.18.84Zm-2.53,6.24-.17,1,.34.17.16-1.18-.16-.17Zm.5-50.59.51-.51-.34-.34-.5.17-.17,1Zm.17,19.56-.5-.34v.68l.5.17Zm-.5,36.26h.33l.17-.34-.5-.34Zm1.85-72.18-1.69.34h1.86ZM294,309l.34,1,.84.17-.33-1-.68-.34Zm0,22.26.85.85.33-.17v-.34l-.67-.68h-.34Zm0,5.57.34.17.17-.85-.51-.17Zm0,22.76.34.17.17-.17-.51-.33Zm1-25.29-.17-.34-.68-.17.85.84.16-.16Zm-.68,3.2-.17.68.68-.17-.17-.34Zm1,24.79-1.18-.5.17.67.68.34.33-.17Zm-.33-44v-.34h-.51l-.17.34Zm-.51,5.9.34.17,1.18-.17-1.35-.34Zm0,4.89.17.34,1-.34-1.18-.34Zm0,12,.34.51.33-.17V341l-.5-.33Zm0,1.52.17.17.17-.34-.34-.34Zm.34,5.73.17.34,1,.17.34-.67-1.35-.17ZM297,309l.67-.67-.33-.17-2,.67.68.68Zm-1.18,3.54.17-.67-.68.17v.5Zm.51,34.57-.17-.33h-.34v.33ZM296,264.94l.34.16.16-.33-.33-.17Zm.84-6.24v.5l-.67,1.18.33.17.85-.5L297,258.7l-.34-.34Zm-.5,36.09-.17-.17V295Zm1.51-32.21-.17.33.51-.33Zm.51,40.64-.51-.51-.17.34.51.5Zm-.17,7.42-.17-.17-.34.34.17.5h.34Zm0,2.36.17-.34-.17-.34h-.34l-.17.34.17.51Zm.34,26.14-.34-.34-.17.51.34.17Zm0-40.81.33.5.85.17-.17-.67-1-.34Zm.17-35.25h.16v-.34h-.16Zm.33,47.73.34.17.17-.34-.68-.17Zm.51-14.34v-.17l-.51-.17v.34Zm-.34,8.43v.34h.68v-.34l-.51-.33Zm.34,44.19-.17-.17-.17.34.51.16Zm.17-96.8-.17.34h.51v-.17Zm.34,54.64.16.67h.34l.68-.5h.67v-.34l-.34-.34h-.84l-.34-.67-.67,1.18ZM310.5,300l1.69-.17,1.52-.84,1.34-.34,1.35-1.18,1.86-4.38v-4.05l.17-.34.17-3.37.16-.17.17-4-.5-2.87v-3l-.51-.84v-1.52l-.5-1-1-3.54-.84-1.35L314,265.61l-1.35-.84-1.35-.34-2-.17-1.35-.34-2.19-.16-2.36.33-.84-.67-.51.67-1.35.34-.34.34v7.92l-.17.34v4.22l.17.33V280l.17.33v2.19l-.34,1.35.17.68v4.38l-.17.34v1.69l.17.17v2.36l-.17.33.34,1.35-.17,3.38,1.35,1.51,2.36.17.34-.17h1.69l.33.17H310Zm-9.78-37.27-.34.51.17.34h.34l.5-.51-.5-.5Zm0,46.89-.17-.17-.17.33.51.17Zm3.54,2.69-.5-.16-.51-1-.84-.16-2,1.34.17.34.68-.17,1.35-1,.33.17-1,1v.51l.34-.34h1.52l.33-.17Zm-.17-2.53-.33-.67-1.35-1.18-.68,1.85,1,.17v-1.18l1.52,1.18Zm0-47.05-.5-.5-1.18-.34.33.68,1.35.5Zm-.5,44.53.5-1.35-.84-.51-.51.84.17,1.35.68.34Zm1.35,4.38-.51.51v.33l.34.17.84-1Zm1.35-1.86-.51-1.18-.51-.16-.67.5,1.69,1.86Zm-1.35-2.86.5-.17.85-1.18-1.19.5-.33.68Zm.33,6.57.34-.16V313l-.67-.17-.17.67.33.17Zm.68,3.71.17-.16-.17-.51-.51-.17v.84Zm.67-5,.17-.68-.17-.34h-.33l-.17.68.17.34Zm2.19,1.51,1,.51-.34-.68-1.18-.33-1-.68.5,1.18Zm-1-7.92.17-.17-.34-.17Zm1.35-50.93v.5l.34-.16v-.34Zm.85,49.92.33.16v-.33l-.5-.17Zm.33,5.56-.33-.67v.84Zm1.69,4.89.34-.5h-.68l-.17.5Zm.34-5.73.16-.17-.16-.34h-.51v.51Zm1.68,1V310l-1.35-.17v.34l.68.34.17.34-1.35.5-.34.34.67.17,1.35-.84Zm-.84-4.55.34-.34H313Zm1,2.53,1.52.5v-.34l-.51-.67-.84-.17-.51.68Zm2,2-.16-.34-.68-.34-.17.17.68.85h.33Zm-.84-3.71.17-.17v-.51Zm.84.67-.33-.16-.34.33.34.34.33-.17Zm1.19-.5-.34-.68-.34-.17v.85l.34.17Zm1.85-2.7.17-.34-.17-.34-.67.34-.17-.84h-1l-.51.5,1.35.51.34.51Zm-1.35,4.55,1-1.68h.51l-.34-.85-1.35.85-.33,1.51.16.34ZM319.1,310l-.17-.33h-.33l-.17.33.17.34h.33Zm.17-9.95.17-.17-.17-.33-.34.17Zm1.35.85.34.33v.51l-.51.34-.67-.17v.34l-.68.84,1,.17,1-.85.33-1.68-.5-.85-.34-.16-.34,1Zm-.84,9.44-.51-.17v.34l.67.17Zm.67-1.85.34-1-.68.17-.17.85ZM323,304.9v-.67l-.84-.68-1,.17-1-.17.51.85.67.17.68-.85.84,1.52ZM321.46,253l-.17-.17v.68l.34.17Zm.17,54-.17-.17-.17.34Zm1-6.58.51-.51.17-.67-.85-.34-.16,1.52ZM324.16,287l-.5-.51.16.85h.34Zm.17-20.74h.34l.17-.51-.51.17Zm.34,1.51-.34-.17v.51h.34Zm0,18.22.17-.51-.51.34Zm.17,9.1.33-.67-.67-.34-.17.68.34.5Zm.84-26.81-.17-.17-.17.34Zm.5,38.45v-.34l-.33-.17-.34.34v.51Zm.17-16.19-.33-.17-.34.17v.34l.34.17.33-.17Zm-.33,17.2-.17.34.17.17Zm.33-3.54.68-.68-.17-.33-.34.17-.5.84Zm.34-10.29.17.17.17-.34-.34-.17Zm1,5.4.34-.17.17-.67-.34-.51-.84.67-.17.68Zm1.35-2.19-.17-.34-.84-.17-.84.51,1.85.5Zm-1.18-8.77.17-.17-.34-.17-.17.51Zm.67,14.67v.34l.34.16.17-.67-.34-.17Zm.51,6.58-.34.67.34-.17Zm0-7.93h-.17V302h.34Zm.34,3.54v-.34l-.34-.33-.17.17.17.5Zm1.35-15.85.67.17.17-.34-.67-.34-.34.17Zm.17,21.59.17-.34-.34-.17-.17.34.17.33Zm2-21.08-.34-.17-.17.5h.51Z" transform="translate(-101.56 -244.61)" fill="#0065b3"/><path d="M406.8,365.11,405.28,367l-3,.34h-2.7L398.2,367h-6.41l-2.87.34-.34-.17h-1.85l-.51-.33h-1l-.67.33-2.2.17-1.68-.34-4.05.34-1.69-.34h-7.59l-1.35.34-.5-.34h-3.71l-.34-.16h-1.68l-1.52.33h-2.36l-.34-.17h-1.35l-2-1.18-.34-.84.17-.68v-3.2l-.17-.17V358l.34-2.53-.51-1-.17-1.18.34-2.19V347.4l-.17-.34V341l.34-1.35v-7.42l-.17-.33V330l-.17-.34V328l-.17-.34v-2l.17-.34V324l.17-.34-.17-3,.34-1.35-.51-.85.17-.33.17-3.38-.17-.33.34-2.7v-3.88l-.17-.34v-7.08l.34-.51-.34-1.34-.17-2.53.34-.34v-4.22l-.17-.34v-1.34l-.17-.34v-2.87l.34-.34v-4.72l-.17-.33V276.4l-.34-1,.34-2.53-.34-2.36.17-1v-6.07l.17-.34L352,259l-.17-.33v-3l.17-.34v-2l-.17-.34v-2.53l.34-1.18-.34-2,.17-.68.84-1,5.23-.84.5.5,2.53-.33,1.19.33,2.86-.33h6.75l.33.17h1.52l.34-.17h6.24l.34.17h3l.34-.17,2,.17H394l.84-.34,1,.5.68-.16h4.89l.34-.17.67.17.51.67.5.17.17-.51.51-.17,1,.85.51.84.16,2.7-.33,1.85.5.51-.17.68v2.86l-.33,3.21.33.67-.33,2,.17,1.18-.68,1.35-.51.51-1.18.51h-2.36l-3.2-.34-.34.17-2.87-.17-.5.34h-2.7l-.5-.34-.17-.68-.85.85h-7.59l-.33-.17-4-.17-2.19.34-1,.84-.51,1.18-.17,2.36.17.34V271l.17.33v1.35l-.51,2,.34.5v1.69l-.34.51.34,1.68v8.43l.17.34v1.69l-.17.33v1.52l-.17.34.34,1.52,1.35,1,3,.17.34-.17h4.22l1-.34,4.55.51h2.87l.34-.17h3l1.18.51.51.5.5,1.35.34,1.86-.51,1.18.51,1.85v3.88l-.17.34v5.39l-.67,1.35-1.35,1-1,.17-3.88-.17-.34.17h-1.69l-.33.17H384.2l-1-.34-2.7-.16-.34.16H378.8l-.34.17H375.6l-1,.51-.51,1v2.36l.17.34v2.19l-.17.34v1.35l-.17.17-.84-.51v.51l.34.33h.33l.51.51-.34,1.69.34,5.06-.17.33v3.38l.17.33v2l-.68,1.68.68,1.18-.17.17v4.05l.17.34v2.53l.5.84.51.34,1.86.33h6.57l.34-.17,4.05.17.67-.33,1,.33.68-.17h2.7l.33.17h2l.33-.17h2.37l.33-.16h2.36l.34.16,3,.17,2.19,1,.5,2v1.35l-.33,2,.17,1.18.33.51-.17.67v8.94Zm-52.45-73.36-.68-.68-.67.17-.34.51ZM353,298.5l-.34.5H353Zm1.69,27.31-.17-.33h-.34l-.17.5.51.17Zm.33-29-.17-.34-.5.17.5.51Zm.34-43.51-.67.34-.17.67,1.18-.34v-.5Zm-.67,45.7h.16v-.34l-.33-.16Zm.33-4.38-.33.5.33.34h1.18l-.84-1Zm-.17,7.92.17.34.51.17.17-.34-.85-.5Zm1.52,3.54-.17-.16h-1.35L356,307.6l-.34-.17-.34.34.34.34.34-.17.5-.84v-.68Zm-1.18,13,.68.34.17.5.33-.33v-.68l-1-.17-.34.17Zm.51-42.5-.34-.17-.17.34.68.17Zm.17,12.82.17-.51h-.34l-.51.51Zm0-19.23.17-.5-.68.17v.33Zm-.17,17-.17-.34.17.67.17-.17Zm-.17,35.07.34.17.67-.17v-.33l-.34-.17-.67.17Zm1.18,3.21-.51-1.18-.67-.17.34,1.35.67.33Zm-.34-7.59.51.34,1,.16.17-.33-.17-.51-2.19-.34Zm-.17-55.15-.33.17.17.85.5-.17v-.85Zm-.16-.84.33-.17-.33-.17Zm.33,9.44-.33-.16v1l.33.17Zm1,8.77L356,281.46l.16.68L356,283l.67.51,1.18-.17,1.18-2.53-.17-.34-.34.17-.33.84-.51.34-.34-.34.68-1.35Zm-.67,10.8-.67.16,1-.16Zm-.67,8.6.67-.17.34-.51-.17-.33-.34.33-.5-.17Zm0,2,.16.68h.34l.68-.51.5.17.17-1-.17-1.52h-.34l-.84,1.52H356Zm.5,3.37,1-.5.51-.85-1.35.17-.51,1.18Zm.17,10.8h.34l.17-.68h-.34l-.51.51Zm.34-22.77-.51.17v.34h.68Zm.5-20.57-.84,1.35,1,1.34v1l.68-.34,1.51.17-.33-.51-2-1.35v-.5l.51-.51.17-.51-.68-.5Zm-.5,6.74h-.34v.34h.51Zm.17,3.54-.34.34v-.51Zm.16,40.14-.33-.34-.17.51Zm-.5,17.2v.34l.34.17.33-1-.33-.16Zm2.19-56.66v.5l-.67.17-.68.51-.5.84.16.34.85.17-.17-1,1.52-.68-.17-.84Zm-1.69,14.33-.16.85,1-.17,1.52-.68.33-.67-.17-.51h-.84v.34l-.51.67-1-.17Zm.51-31.37V266l-.51-.34.17.67.51.34Zm-.17,68.81-.17-.17-.17.34Zm-.17,14.67.17.17.34-.17-.17-.34h-.51Zm.51-61.55-.17.84-.34.51.34.17.51-.34.33-1-.5-.51h-.34Zm1-16.7v-.67l-.34-.51-1-.34v.68l.34.67.84.51Zm-1.18,63.07.17.17.5-.5-.33-.34-.51.17Zm1.52-55.14.34-.84-.85-1.35-1-.34.67,1,.51,1.69Zm-1.52,37.1h.51l-.17-.68h-.34Zm.34,14,1.52,1-.17-.68-.68-.33-.17-.85-.84.17Zm0,7.25-.34.5.67-.16v-.34Zm.84,12.48-.67-.34-.51.34.51.5.67-.16Zm.34-27.15-.51,1.18-.67.17.67,1.18.51.33v-1.35l.17-.33V323Zm-.51,25.8-.34-.17-.33.17.33.34h.34ZM358.73,311l-.33,1.69,1,.17.34-.17-.34-1.69-.68-.33Zm.17-17.53-.17.5,1,.34v.34l-.34.17-.17.67.67-.17.34-.5.34-1.35Zm1.18-26.65-.67-.34-.51.34.85.34.84,1,.34-.84-.68-.34Zm-1,34.07v-.17l-.17.17Zm1,18.38-1-.17-.17.67.85.34.5-.5Zm-.84-63.41.17.17.34-.68-.68.17Zm1.35,48.57h-.34l-1,1-.17.67,1.18.17.68-1v-.67Zm-1.52,9.78.34-.34-.34-.17Zm.68,19.06v-.34l-.34-.17-.34.17v.34Zm0-61.05.16-.17-.67-.34.17.68Zm1,11.47.5-.85-.17-.34-.84-.33-.17-.68-.67-.17-.17.34.34,1.18,1,.51.17.5Zm-1.18,8.09h.17l-.17-.51Zm.17,22.93h-.17v.51l.5-.34Zm0,6.24v.34h.33l.17-.34Zm.16,30.87.68.16v-.33l-.68-.34-.16.34Zm2.2-61.05-1.18-.34-.68.34-.34.5h.68l.67.51.85-.68Zm.84,24.79.34-.17.5-.84.34-.17-1-.17-1.18.84.17-1h-1.52l-.17-.17.17-.84-.68.17v.33l1,1.52.16,1h.34l.68-.33-.17-.68.67.51Zm-2.87,6.74-.17.17.17.34.34-.17-.17-.67Zm2.36-65.77-2-.16-.34.5,1,.34,3.55-.34-1.86-.5Zm-.5,74,.84-.85h-2.7l1,.85ZM361.09,341l.34-.5-.17-.68.85-.17v-.33l-.68-.34-1.35-.17.68,2.36Zm.17.68-.33-.17-.68.34-.17.67,1,.17.34-.68Zm-1-54.31.17.34h.34v-.34l-.51-.33Zm.51,79.1.33-.34v-.34h-.67l-.17.34.17.34Zm.17-71.51-.34.17-.17.68.51.5.5-.33-.17-1Zm0-23.1-.34-.34v.34ZM360.59,300l1,1.18v-1.35l-.34-.5h1l.5-.34v-.84l-.34-.34-.5.34v.5l-1.35.34Zm1.18,1.86-.68.34-.5.84.17.67.5.34.85-2.19Zm-.84,14.67-.17.34.33.17.17-.34-.33-.51Zm.16,36.26.34-.17v-.34h-.34l-.33.51Zm-.16-24.62.33.33.17-.17-.34-.5Zm1-66.45-.17-.34-.68-.33,1,2.53h-.34l-.51.5.17.68.68-.17,1.18-2.36-1.35-.17Zm0,18.21-.17-.33h-.51l-.17.84.68.17.17-.34Zm-.68-9.44.34.17.51-.51h-.85Zm0,50.42.51.34v-.34l-.51-.33Zm.34-43.84.34.5-.17,1,.84-.51,1-1.35-.16-.51-1.35.85.33-.51-1,.17Zm-.17,8.09,1-.17-1-.16Zm.51,66.11.17-.51-.17-.16-.51.67Zm-.17-62.06,1.85,1.35.17-.34-.17-.67-1.34-.85-.68.17Zm.34,23.78.17-.84-.51.33-.17.68.51.17Zm-.17,32-.34.17.17.5.34-.16.17-.51Zm.5-51.6.17.33-.84,1.52h.84L363,295l.34-1,.5-.5.68.33.17-.17-.17-.5-.51-.51-.5.85-1.18-.68Zm0,13.49h.34l-.17-.85h-.33l-.51.68.51.34Zm-.5-46.21.67.17v-.68l-.67.17Zm1.35,60.88h-.51l-.67.34-.17.5.17.34.67.17.84-1Zm-1.18-17.71.5.17.34-.51-.84-.16Zm.33,24.45h1l.33-.5-.5-.34-1,.34-.17.34Zm0,6.75.17-.17-.5-.17v.34Zm2-64.93-.51-.5.34-.85-.17-.67-.51.51-.16.5-.51.51-.34-.34-.33.34.67.67,1.85.34L366,270l.17-.67-.67.17-.34.67Zm-1.35,2.53-.51-.17-.33.51.33.17.51-.17Zm-.68,52.62.68.34h1.35l-.17-.85.17-.84h-.34l-.67.67h-.68l-.5.51Zm.34,23.27.17-.5-.34-.17-.33.67Zm-.34,3.71h.34L363,352l-.51-.33Zm.51,5.57-.51-.17.17.67H363Zm0-55.32h.34v-.33l-.51-.34-.17.5Zm.17-41.82-.34-.17v.34l.34.17Zm1,23.44-.51.17-.16.34h.33l-.17.5-.84.51.17.5,1.69-.33-.17-.34-.51-.17.34-.17.17-.84Zm-.67,32.38-.68-.17v.34l.68.17Zm-.34,23.61-.34.34.34.17.34-.34Zm.17,3-.51.68.34.17.34-.17.16-.51Zm.5-32.54.34.17-.51,2.36.34.17,1.18-.17-.34-2.87.34-1-1.35.17-.67.5-.17.68Zm-.17-55.32-.33.17-.17.51.34.17.33-.17.17-.68Zm.17,53.13-.33-.17-.34.33.34.34.33-.17Zm-.5,10.62-.17.17.17.17.33-.34Zm.17,27.32.5-.68-.84-.16v.67Zm-.17-87v.34l.5.17.17-.34-.5-.51Zm.17,15.68h-.17v.51l.33.17Zm.33,21.25.34-.84h-.34l-.5.51.17.33Zm-.5,50.93.33-.17-.33-.17Zm.67-84-.34.34v.67l1.69,2,.17-.67L364,263.76l.17-.51ZM364,282h.17v-.51h-.34l-.17.34Zm0,36.76,1-.34.51.85.5.17-.33-1-.85-.5-.84.17-.34.5Zm-.17,23.78h.34L364,342l-.34.17Zm.85-53.46-.51-.5-.17.33.17.51h.51Zm-.34,9.45.34-.17V298l-.34-.17-.34.68Zm.84,7.25-1.18-.68v.34l.51.51.67.16Zm-1-25.13h.51l-.34-.34Zm.51,33.9-.51,1.51.34.17.33-.34.51-1.34-.51-.34Zm-.17-53.8-.17.67,1.52.51-.17-.67-.85-.68Zm.17,60.37-.34-.33v.5Zm0,13.49.5.34.84-1-.33-.34h-1l-.34,1Zm1.18-51.26-.51-1.35-.34-.17-.5.84Zm1.85,17.2-1.35-1.35.51-.51.84.51L368,299l-.51-.5-.84-.17-.68.17-.16-.68h-.34l-.17.34.51.5-1.18,1.18-.17.51.84-.17.51-.34.5.34.17,1,1.86-.33.16.67h-.84l.17.68h.84l1.18.5-.16-.84-.51-.34.17-.67.5-.51,1,.67.16-1,.34-.5-2-.51-.51-.34-.34.68.17.67Zm-2.36,28-.51-.33-.33.16.17.34.67.34.17-.17Zm2.36-47.38-1.52-1.69-.84-.34-.17.51.51.84-1,.68.67.33v-.17l1-.5,1.35.84Zm-2.87,15.68-.16.17.33.33.17-.33Zm.34,30.52.34-.33.17-.68-.85.34v.67Zm.17,17.2v-1l-.34-.67-.17.5.17,1.18Zm-.51,4.56.85,1v-.34l1-1.18-.84-.17-1,.34Zm.68-75.72-.34.17-.17.5.68-.17.33-.5-.5-.34Zm1.35,19.05-1.18.51-.51,1,1.18.34v-.34l1.18-1.18Zm-1.35-21.24.17-.17-.34-.17Zm1,80.44-.17-.68h.51v-.33l-.34-.17-1.18.17.17.84.5.5h.34Zm.34-27.32-.17-.34,1.35.34v-.68l-.68-.33h-.5l-.51.5-.34-.17-.33.34-.17,1.52,1-.51.68.51.16-.17-.33-.51Zm0-15.18,1.18-.67.17-.51-.68-.51-.67.17-.17.34-1,.51v.84H366l.68-.51.17.68Zm-.51.51-.67-.17v.33l.67.17Zm.17-48.91.34-.17v-.34l-.85-.16-.16.67Zm-.34,56v-.34h-.33v.34Zm.68-52.79.5-.67-.5-.51-.51-.17-.34,1.86.34,1.18.51-.34-.17-1ZM369,312l.84-.51-.33-.34H369l-.51.34-.67,1.18h-.34l-.33-.67.16-.85-.67-.17-.68,1.19.68.33.51.68.67.17.84-.34.17.34-.34,1,.68.17.34-.85-.68-1.51Zm-1.85-23.78.16.5-1.18.17.34.68,1.18.67.34-2.7-1-.33-.34.16-.17.51Zm-.68,8.26-.34.51H367l.5-1Zm.34,9.61.17-.5h-.51l-.34.5Zm-.34,8.27h-.34V315l.34.17Zm0,16.36.34-.51L367,329l-.68.17-.17.67.17.68Zm0-62.74-.17.34.68-.17-.51-.51Zm0,60.37.51.17.5-.33-1.18-.17Zm0,13.16-.17-.34v.51ZM367,258l-.34-.67h-.17l.17.5Zm0,24.62,1,.51-.17-.68-.51-.67-.67.84Zm0,1.18h.33l.17-.5h-.67l-.17.34Zm.67,31.88v-.34l-.5-.34-.51.51.17.33.67.34ZM367,333.57l.5-.84-.67.34-.17.67Zm.17-79.43-.17.34.17,1.18.5.34.51-.34-.51-.51.17-1ZM367,258l1.35.84.33-.67.85-.34-.17-.67-1.18.5-.17-1-.51-.5v1.35l-.17.33Zm.33,86,.17-.34h-.33L367,344l.17.17Zm0-50.09-.16.51h.33l.17-.51Zm0,25.64.68,1.18v-.85l-.51-.5h-.33Zm3.88-59,.17-.84-.17-.51-.5-.34-.85.17-.33,1,.33.5-.5.51-1,.5-1-.17v.68l.85.84v-.34l.5-.67.68-.34.17.17-.17,1,.34.51,1.51.34L370,262.41v-.68l1-.84Zm-3.37,57.84.67-.33.17-.34-.17-.51-1.18-.33.17,1.51Zm-.34-40.13.17.34.68.16-.17-.67-.68-.17Zm.51,1.68-.51.17.68.51.67.17.17-.68h-.67Zm-.51,69,.17.34H368v-.34l-.51-.34Zm.34-63.24.51.17.84-.68-1.52.17Zm0,40.81-.17.17.51.34v-.51Zm.17,3,.34-.17.16-.51H368l-.34.51Zm0,23.94-.34-.17v.34l.34.17Zm.34-30.86-.17-.17-.17.34Zm.5-30.35-.5.84v.67l.33.17.68-1.52-.34-.5Zm.51,4.89.34-.85h-.34l-1,1,.33.34.68.17Zm0-3-.34,1-.51.51,1.19.17.16-.85-.16-1Zm1,14.67v-.67l.51-.85.67.17-.51-1.35-.5-.33-.68.17-.33.5.17.34.5-.17.17.17-.67,1.69-1.19-.34.17.67.51.34h1.35Zm.51,47.9.16-.51-1.18.17-.5-.51v-.33l1.35-.51.17-.51-.51-.33-1,.33-.68.68-.17.67.51.68,1.35.5-.17.34Zm-2.2-85.84.17.17.17-.17-.17-.34Zm0,82.8.34.17.34-.51h-.68Zm.68-65.09.17-.17v-.85l-.68.17.17.85Zm0,55.48-.17.34h.34l.17-.34Zm.17,3.54.17-.51-.51.51Zm0-69,.17.67H370l.17-.34-.17-.84Zm.33,25.63-.33.34h.5Zm0,29.85-.16-.17-.17.34Zm.34,18.55-.67.67.5-.17.51-.5Zm0-96.63v-.17l-.5.17Zm-.17.84.17-.34-.5-.16v.5Zm-.17,61.55h.34v-.33l-.5.17Zm.17-47.72.34.51H371l-.67-.85h-.51Zm3.54,80.1-1.51-.84h-2l-.17.17.51.51,3.2.67Zm-2.86,8.44h-.85l.85.33ZM370,312.83l.17,1,1.18-1v-.34l-.67-.33v.33H370Zm.17-53.46h.34l.34.68-.34.5h-.34Zm.34,57.68.34-.17.16-.51h-.5l-.34.34v.34Zm.17,34.57.17-.17-.17-.34h-.51v.51Zm-.17-17.2-.17.5.51-.5Zm.34-12.65.5-.17v-.34l-.5-.17-.34.51Zm0-11.3-.17.17H371ZM371,352.8l.51.33.34-.16v-.51l-.34-.34h-.67l-.17.68Zm.34-61.05v-.34l-.34-.34-.16.17.16.51ZM371,296.3v.34l.34.17.17-.34-.34-.5ZM371,324l.17.34h.34l.34-.51-.34-.34-.51.17Zm.51-19.22.51-.17.16-.85-.5-.5-.51,1.35Zm-.17,4.89.34.16.5-.5-.67-.17-.34.17Zm-.17,26.47.34-.17-.34-.33Zm.51-74.54v-.17l-.34.34Zm0,87.36h-.34l.34.84.34-.67Zm.17-47.05.17-.34-.17-.51-.34.85Zm.5,58.52-.17-.34-.5-.17v.34l.5.5Zm0-1.18.17-.51h-.5l-.17.67Zm.51-2.2-.34-.33-.5.16.16.68.51-.17Zm-.17-79.09v.51l.34-.17v-.34Zm.34,30-.34-.17.17.51Zm1.52-6.75.16-.67-.33-.34-1,.17-.34.84.5.51.68-.17Zm-1,5.06-.16-.33-.34.5Zm-.16-1.51.5.5.34-.17-.84-.67Zm1.18-1,.67.17.51-.84-.51-.17-1,.84Zm.84,5.57-.34-.17-.17.67.51.17Zm-.17-10.63.17.17.34-.17v-.33h-.51Zm.84,1.18.17-.16-.17-.17Zm.68,8.27.34-.51-.17-.34h-.34l-.34.68.34.51Zm-.34-1.86.68.17v-.34l-.34-.16Zm1,4.72-.17-.16-.33.33Zm-.17-10.45-.16.84,1.17,1,.68-1.18-.17-.17-.34.17-1.18-1Zm.34,53.8.17-.34-.34-.17-.33.17.16.5Zm0-45.2.34.17.5-.34-.84-.17Zm1.18-1.52-.34,1.18h.34l.34-1Zm.17-8.77h.67l.17-.5-.84.17Zm.34-35.24v.33l.5.51h.51v-.67l-.51-.51h-.33Zm.5,42-.33-.17-.17.34.33.17Zm-.17-4.05v.34h.51l.17-.68Zm.68,8.94-.17.17.51-.17Zm.34-3.21.33.34h.34v-.84l-.67.17Zm.17-2.86,1,.67.67-.17.85-.67-.34-1.18-.68,1.18-.5.34-.85-.51Zm1.85,6.41-.34-.17v.5h.51Zm.84,41.31.17-.33-.33-.17-.17.33Zm0-105.23.34-.17-.5-.17Zm.85,8.1-.34-.68-.67-.17.5,1.18h.34Zm-.51,103.54-.34-.34-.16.51Zm.68-101-.34-.17-.17.17.17.33h.34Zm-.17,40.3-.17.34.34.34.16-.68Zm1,15.52.17-.17-.17-.34h-.51v.51ZM385,254.82l.34.17.17-.34-.34-.17Zm.34,48.06-.17-.17-.17.34Zm.34-4.55-.34-.17-.17.34.67.16Zm-.17,12.31-.17-.17-.17.34Zm1.51-2.7-.33-.51h-1.35l.67.68,1,.17Zm-1.18-49.08V259h.51l-.34-.33Zm.17,46.55-.17.17.17.34h.34v-.34Zm0-8.6.17-.17-.17-.34Zm1.86,5.56-.51-.5-.5-.17-.34.17.5,1,.85-.17Zm.17-5.06-.34-.16-.68.5.34.17.68-.17Zm-.68-36.08v.67h.34l.17-.67-.34-.17Zm.68,37.77.17-.67-.34-.17-.34.5.17.51Zm0-38.45h.33l-.33-.17ZM392,360.22l-3.88.17h4Zm-3.21-54.47,1-.68h-1.18l-.17.68Zm.34-1.69.17-.17-.17-.34h-.51v.51Zm-.17-5.23.17.34.67.34V299l-.33-.5h-.34Zm.67-3.54v1.18l.34-.17.17-.67-.34-.68Zm.85,11.47-.51-.34v.34l.34.34h.34Zm-.17-4.55.34.33h.5l-.17-.5-.67-.17Zm2,4-.17-.33h-.33l-.34.5.84.17Zm.17-3.37-.17,1.18.51-.34.17-.67-.34-.51Zm4.39,57.67-.17-.16-.17.33ZM397,252.79l-.16-.16-.17.33Zm0,106.92-.16.17H397Zm1.69-.17.34-.17.17-.67-.68.34v.33Zm1.86,1.18h.84l-.34-.5v-1.69l-.84-.17v2.19Zm1.18,4.89v-.33l-.51.33.34.34Zm.84-101.69-.17-.33-.34.5Zm.34-2.19-.34-.17-.34,1,.68.17.17-.67Zm.33,100.17-.16-.17-.17.34Zm.17-107.25-.17.17.34.33.34-.33v-.34l-.34-.17Zm.68,1-.51-.17V256h.51Zm0,5.23-.17.17h.34l.33-.34Z" transform="translate(-101.56 -244.61)" fill="#e61030"/><path d="M480.32,327.42l.34,4-.34.34v5.06l-.16.34v2l-.17.34v1.35l-1,5.56-1,3.21-1.51,2.7-.34,1.68-3,4.05-3.88,3.54-4.72,2.7-4.89,1.85-2.7.17-1.35.51-2.19.17-.34-.17-3,.51-2-.34h-4.39l-.34-.17h-1.35l-.33.17h-1.69l-.34.17H436l-2.36-.34-.17.17h-13l-1.35-.51-.85-2,.85-1.35-.68-1.35-.17-.84.51-.17-.67-1-.17-.85.5-2.36-.33-4,.16-.33v-3.38l.17-.33-.33-5.23.16-.34v-2.86l-.16-.34.33-2.7.34.17v.34l.34.33.5-.17.85-1-.34-.17-1.18.34-.34-.17-.34-1v-2.36l.17-.34v-2l-.33-3,.33-2.19-.33-1.35.67-3.88-.51-.67v-3l-.16-.33.16-2.87v-8.1l.17-.33v-1.52l-.17-.34v-8.09l-.33-1.35.17-.68.5-.5-.5-1.52v-4.72l.33-2.36-.33-.68.16-.33-.16-3.88.16-.34v-3l-.33-1.35.17-.33v-2.36l-.17-.34v-2l.33-.34V263.5l.17-.33v-5.74l-.17-.34v-1.51l.17-.34v-1.69l-.33-2.36.33-.67L418.1,249l.16-.84L418.1,247l1-1.52,3-.51h1.69l1.18-.34.51.34,3.37-.34,1.18.34h8.26l.34-.17h2.7l.5.68h.68l.17-.34.84-.51,1.52.51,3.2-.17.34.17,2.19-.34,1.52.34h3l4.72,1.18.84,1,.51-.5h.67l1,.84L467,249l1,.84.51.85.17.84H470l.67.34.84,1,1.19.84.16.34-.16.67-.34.17-.34.68v.84l.84-1.35.51-.17,1.52,2.36.84.68.34,1,1.85,3.54,1.18,3.71.17,2.87.68,1.68-.17,3.21.5,3v7.59l-.33.34-1.35.17-1.35-.34.67.68,2.36.16.17.68v2.87l-.17.33v2.7l.17.17v1.52l.17.34-.5,2.36.33.5-.5,1.86-.85.5.17.17h1l.17.17-.5,1.35.5,1.52v3l-.17.34v1.52l-.16.34.33,2.36v4.38l-.33,1.69.33.5-.17,1,.17,2.7-.17.34v2.53l.34,2.36-.17,1.35ZM418.6,362.83l-.17.17-.17-.34Zm.17-23.44.51.34.16-.84-.67.16Zm2,23.44.17-1.35-.67.34-.68-1-.33.33v.51l1.35,1.52ZM420,346.14l.51.16v-.5H420Zm.51-14-.17-.51-.17.51Zm.33,6.07-.16-.17-.17.34Zm.34-65.94-.5.51v.5l.67-.16.34-.51-.17-.34Zm.68,71.84.33-1-.67-.17-.51.17.34.34.17.84Zm-.68-75.21.34.17.34-.17v-.51l-.34-.17Zm.51,63.75-.51.33.68-.17Zm-.17-9.28-.17.17h.34Zm.5,34.07-.67-.17v.5H422ZM421.81,277l.33-.16v-.68l-.33-.17-.34.68v.67Zm.5-5.9v-.5l-.5-.51-.17.17.5,1.18Zm-.5,37.61.33.17.34-.17v-.34l-.34-.17-.33.17Zm.67,25.29.17-.33-.34-.17-.34.17-.16.67Zm0-72.68-.17-.17-.17.34Zm0,19.73.17-.17-.51-.33v.67Zm-.17,48.23-.17.34.34-.34Zm0-61.38.34-.34h-.34Zm0,18.38.51.17v-.51l-.51-.34Zm0,44.35.34.34v-.51Zm.68,13.49-.17-.17-.34.34.17.51H423Zm.5-76.39-.5-.34h-.17l.84.68Zm-.17,68,.17-.5h-.33l-.17.5Zm.34-60.54-.5-.17v.34l.5.17Zm.17,5.4.34-.17-.17-.68h-.51l-.17.34Zm.17,31.53.17-.34-.51-.5v.84Zm.17,30.69.33-.5-.17-.17-.5.67Zm.16-41.65-.33.51.67-.34.34-.51ZM425,318l-.68,1.86.34.17,1-1.86-.5-.34Zm-.34,14.34-.17-.17-.17.34Zm1-67.8-.67.68-.51-.34.17.85.51.16,1.69-.67.16-.68-1.35-.33Zm-.84-3,.34.34.34-.85h-.68Zm.68,33.9,1.68.16.17-.33-.67.17-.34-.85-.51-.33-1,.16.34.85Zm-.68,46,.51.17,1-.67v-.34l-.34-.17-1.18.17ZM427.71,266l-.68.68-1.35.17-.5.67h3l.34-.51-.34-1Zm-2.53,12.82v.34l.67-.34.17-.68-.34-.33Zm.5,27.82.34-1-.5-.84-.34,1,.34,1Zm0-30.35.17-.17-.5-.34v.51Zm0,38.45.17-.68-.33.17-.17.68Zm.51-56.16-.51.34.34.17.34-.34Zm-.34,67.12.85.84-.17-.67-.68-.51Zm1-27.49.16-.33-.16-.17-.34.67Zm-.17-26.31.84.34-.34-.67-.5-.34Zm.33,65.94.17.17h1.18l.17-.17.34.17v.68l.5-.34-.33-1-.51-.34-1.68.51Zm.34-50.08.17-.34h-.34L427,288Zm-.34,4.55.51.17-.34-.51Zm.17,59.36.34.17.67-.17-.5-.5-.51.16Zm.34-7.08.34.17.16-.34-.67-.17Zm-.17,2.53.17.17.34-.51-.34.17Zm.51-83.14-.17.17.17.17.33-.17v-.34Zm.33,25.46-.5-.33v.33l.5.17ZM428,255.58l-.16,1.85.16.68.85.33-.51-.5-.17-.68.68-1.51-.17-.34-.51-.17Zm.17,18.55v-.68h-.33v.68Zm.17,79.43.17-.17-.17-1H428l-.16,1.18.16.17Zm.17-84.83.68-.17-.51-.5-.51.5Zm0,31v-.17l-.34.34Zm.51-24.45.33-.17-.33-.34h-.34l-.34.34Zm-.34,1.68v-.16l-.34.33Zm-.34,51.27.17.34h.34l.5-.68-.33-.17-.68.17Zm.51-58.69.67.68-.17-.68-.5-.33Zm.17,22.26-.17-.33v.33Zm.17-30.69-.17.68h.33l.17-.68Zm.16,80.44-.33.17v.34l.33.17.34-.51Zm.51,12.15.34-.17-.34-.34-.51.17v.34Zm.17-93.09-.34.33.34.17.51-.5Zm-.17,10.79-.17.5h.34l.17-.5Zm-.17,5.06.51.17-.51-.51Zm1.86,71.33-.17-.33-.68-.34h-.5l-.51.5,1,.17Zm-1.52.85.51.5v-.34l-.34-.33Zm.34-89.21.17-.17-.34-.17Zm.17,27.32-.17-.17-.17.33Zm-.17,64.08.33.17.51-.34v-.34l-.84.17Zm.17-95.28.33-.17-.33-.34Zm0,86v.68l.5.67h.34l-.34-1.68h-.34Zm1-72,.5-.5.34-1.18-.67-.17-.51.34-.51-.51.34.51.17,1.51Zm0-6.07-.17-.17-.51.34.51.34Zm1.68,1.69-.17-.17-2.19.17.34.84,1,.34.34-.67.17.33.67-.5Zm-2,67.46-.17.84.34-.17.17-.67Zm-.17,1.51.17.34.67-.17V334l-.84-.16Zm0,24.29.34.67.34-.17-.51-.67Zm1.52-97.14-.17-.17-1.18.34v.17l1.35-.17Zm-.51,9.44.17-.5-.34-.17-.67.51.67.5Zm-.67,67.46.17.17.67-.84-1,.33Zm0-80.27.5-.17-.16-.34h-.34Zm1,95.28.17-.51-.51-.17-.17.85Zm2.87-11.47v-.34l-.51-.33-2.7.67,2.53.34Zm-2.53-67.12-.17-.17-.17.34Zm.5,79.77h.34l-.34-.34-.84-.17v.34l.34.34Zm-.67-30,.34.17.16-.34-.5-.17Zm.34,5.9-.17-.16-.17.33Zm.84,15.35-.34-.17-.17.34.34.17Zm-.17,4.05-.17-.17-.17.34Zm.51-89.89v-.17l-.68,1.86h.85V260Zm-.34,39.3,1.85.16-1.68-.5Zm.67-35.42.51-.34-.17-.84-.34.17-.5.84Zm-.33,36.76,1.18.17-.17-.33-1-.34-.17.34Zm0,39.47.17-.17-.34-.17Zm.5,15v-.34l-.5-.34-.17.68.34.33Zm.51-91.07-.17-.17-.17.34ZM435.3,302l.5-.17-.33-.16-.34.16Zm.17,49.08-.34.17.17.33.5-.5Zm.33,3.37.51-.51.34-1,.67-.84v-.34l-.51-.17-.33,1-.34.17-1,1.35v.85l.34.16Zm-.5-86.85v.34l.33-.17-.16-.51Zm0,42.67.33.5.17-.34-.17-.5h-.33Zm0,9.44.5-.17-.5-.17Zm.33,19.9-.33-.34v.51Zm0,7.08V347l.51.34.17-.17-.17-.68Zm.51-87.52.17.5L437,259l-.5-.51Zm.51,98.82.16-.17-.5-.17v.34Zm1-100.17-.68-.68-.33.51.33.51.68.16Zm-.34,65.6-.51-.17.51.51Zm0,40-.17-.34h-.34v.34Zm-.17-73,.34-.34-.34-.17Zm.51,14.67-.17-.17-.34.51.51.16Zm-.17,50.59-.17-.17-.17.34.17.17Zm20.74-71.33v-2l.34-.5-.51-.34-.33-1.86.16-1.35.51-.84-.51-.5v-4.39l.34-.34-.67-.33-.68-1.86.17-.5-1.18-1.35-.17-.51.17-.34h-.34l-1.35-.84v-1l-.67-.17-1,.34-.84-.51h-2.37l-2.69-.84-2,.33-2-.16-1.86.84-.17,4.05.17.33v3l-.17.34V283.4l.17.34v2.7l-.17.34-.16,3.2.33,1.52-.33,1.35v4.38l.16.34v3.71l.17.34v2.69l-1,2.53.68-.17.33.34-.17.85v6.74l-.16.34V324l.16.85v4.72l-.16.34v4.38l.16.34V346.3l.34.51,1,.68,1.35.33h3l.34-.17H448l5.05-1.18,3.55-3,1.34-6.07v-12l.17-.17.17-2.69-.34-2,.34-.67-.34-2.36.17-1.35-.33-.84.5-4.56-.34-.84-.16-3.88.16-.34v-11l.17-.34v-7.25l.17-1.18-.34-1Zm-18.38-31.88.34.34.17-.34-.51-.33Zm1.35-5.9-.17-.17-.17.34Zm.17,4.38.5.51.17-.51-.5-.33ZM442,351.36l.34-.5h-.67v.5Zm.17,1.18,1.18.34v-.17l-.17-.33-.84-.51Zm.34-101.35.17.17h.84l.67-.51.34-.84-1,.17-.51.51-.5.16Zm0,8.77.5-.17-.5-.17Zm1.18-2.7.5-.67-.16-.51-.68.85v.33Zm1.35,2.53h-.34l-1.18.68,1,.17,1-.51.17-.67ZM443.9,360.3l-.34-.33v.5Zm.33-101.52-.33-.34V259Zm-.33,90.39h.33l-.16-.34Zm.67,5.74-.34.16-.16.85.33.33.85-1-.51-.5Zm.68-101.19-.85.34-.17.34,1,.16.33-.67Zm-.68,104,.34-.17v-.33l-.34-.17-.34.67Zm.34-99.83.34-.34-.51.17Zm.34-1.69h.33l1-.67-.51-.34-1,.51-.17.33Zm.84-9.11-.67-.16.33.67.68.17Zm-.34,3.88.85-.17v-.67l-.34-.17-.68.68Zm-.17,109.62.34.34h.34l-.17-.68-.51-.17Zm.68-4.05h.67l.51-.34-1.18-.16-.34.33Zm.34,2.87.33-.17V359l-.5-.5-.51-.17.34,1.18Zm0,2.36-.51-.34V362l.34.17Zm-.17-100.34h.5l-.17-.34h-.33Zm0,89.21.5.51.17-.17-.17-.68h-.33Zm.5-90.9-.33.17v.34h.67V260Zm1.18-4.72-.84.84.84.51.68-.67.34.5,1.34-.34.17.85,1-.34v.34l1,.84.33.67v1.35l.17.34,2-.84.5-.68-.17-.67-1,.84-.5.17-.51-.34-.67-1.18.16-.84,2,.17-.34-.68-.84-.84H453l-.67.68-.84-.17-.34-1.18-.34-.17-.5.84-.68.17-.84-.17-.51-.34Zm-.5-5.06.17.34h.5l-.5-.51Zm1.18,4.05h-.51l.17.34H449Zm.34-1.69.33.17v-.34L449,252Zm.33,108.77L449,361v.16Zm0-107.76v.68l.51-.34.17-.67Zm.34,94.95.51.17L450,348Zm.34,4.55.33-.34v-.33h-.33l-.34.33v.34Zm.84,5.74.51.33.33-.17-.16-.33-.68-.17Zm.84-106.08.34.51-.34.67v.84h.34l.34-.5,1.68-1.18L454,251.7h-.34l-1.18,1-.17-.51.34-.33v-.51l-.51-.17L452,252l-.33.16Zm0,112.65.68.17.34-.34-.51-.33-.51.17Zm1.52-114.84-.17-.17-.17.34Zm1.52,3.2.67.17-.16-.67-.51-.17Zm.34,11.3.17-.34H455l-.17.51Zm.33-9.78-.33-.34-.17.34.17.68h.33Zm-.33,7.08v.34h.33l-.16-.5Zm.84-11.46-.17-.34h-.34l.51.67Zm1.18,4.55-1.35.34-.34.5,2.53-.5-.67-.68ZM456,257.09l-.34-.16-.17.33.51.17Zm.67.85-.16.84.5.51h.34l.17-.34-.17-1.18-.68-.17Zm0,2.19-.16-.17v.34Zm0,1.86.34.16v-.33l-.34-.17Zm.34-9.28.51.34.17-.34-.68-.51Zm.34,1.52h-.34l.17.33h.34l.17-.5Zm.17,9.1-.17.17.5.17v-.34Zm2.19,82.47-2.36-.51,1.85.51Zm-2-95.28.16.33.51.17.84-.5-.84-.51-.67.17Zm.67-1.86-.34.17v.34l.34.17.51-.68Zm1.69,4.22-1.35.17.17-.34-.85.34.34.17h.34v-.17l1.35.17Zm-1.35,4.38.34-.5-.17-.34-.68.67.51.51Zm-.17,4.89-.34.34.34.17.17-.17Zm-.17-8.09h.34l-.17-.34Zm.34,36.43-.34-.34.17.5Zm-.34,55.81.17.34h.34v-.34l-.34-.33Zm.68-74.2-.51.17.17.34.5.17.17-.68Zm-.17,26.31-.34.17v.34l.67-.17v-.34Zm.17,54.64.16-.34-.16-.5-.51,1.35Zm0-66.44-.34.5.67-.17v-.33Zm.5,10.28-.17-.33-.5-.17-.17.33.67.51Zm.34-44.52-.34-.67-.5-.17-.17.34.67.84h.34Zm-.84,98-.17.34h.33l.17-.34Zm.5-88.36-.17-.34h-.33V262Zm-.5,3.2.33.17-.17-.34Zm.33,8.6-.17-.17-.16.34Zm0,88.37.34.17v-.17Zm.51-91.24.17-.33h-.34l-.17.5Zm.17-15.85-.17-.17-.17.34Zm.33,7.93,1-.51-.51-.34-1,.34-.17.51Zm.34-5.57-.84-.17v.34l.84.17Zm-.34,21.25-.33-.17-.17.34.17.17Zm2-10.29.5-.17-1.51-.16-.17-.51-.68-.34-.33.17.33.68.68.33.33-.17-.16-.16.84.16Zm-1.18,18.05h1l.17-.34-.68-.34-1.35-.17.51.68Zm-.68,59.86.68.34.33-.17-.33-.5h-.85Zm0-98.31v.33l.85.17-.68-.84Zm.68,3.2-.68.34.85.34.16-.68Zm1.35,4.56-1-.51-.33-.84.17-.34-.68.17v.5l.68,1.52v.51l2.86-.51-.17-.67-.5-.51-.68-.17v.85Zm-1.69,3.37.17.17.5-.17-.5-.51-.34.17Zm.67,5.06-.5-.34-.17.67.67.34Zm.68,6.41-.68-.51-.16.34-.51-.17.17.5,1.35.17Zm-.84,4.21-.34-.34-.17.51Zm.16,4.55-.33.17-.34.68h.84l.17-.85Zm-.16,56.16-.17-.17-.17.51h.5Zm0,13.83.67-.17.34-.5-.17-.68-1,.51-.17.67Zm1.85-96.29-1-.17-.51.34-.17.5.68.34,1.69-.51.33-.5Zm-1.35,10.62-.17-.84-.17.17.17.17-.17.5Zm.17,29.51v-.33l-.51.16Zm-.34,51.94-.17.34.34.17.17-.34ZM463,291l.17-.34-.84.17-.51,1.18.34.17.17-.17.67.17Zm1.69-29.17-.84-.34-.17.51-1-.85-.68.17,1,1,.68.17,1.18,1,1.52-.67-.68-.84-.17-.85h-.33l-.34.34Zm-1.52,3.71-.33-.34-.68,1.52.34.17.67-.34.17-.51Zm-.84,39,.34.17.17-1h-.34l-.34.34Zm.17-34.06.34.33,1-.67-1-.51Zm1,14.5.84-1.85-.17-1.19-.67-.16-.34,2-.67.17v.34l.67,1ZM462.62,249v.17l1,.17-.84-.68Zm.17,14.84.33.34.34-.17-.17-.68H463Zm.84,82.63-.51-.5-.33,1.68.67-.67Zm.17-57v-.33l-.68-.51-.17.51.51.5Zm-.68,18.39v.67h.34l.34-.67Zm0,2.19h.51l-.17-.34h-.34ZM466,268.73h-2.7l.51.51.33,1.18,1.52-.68.68-1.18Zm-2.36,10.79-.34.34.34.17.34-.51Zm0-7.59.5-.16-.16-.34h-.51Zm1,5.91-1,.17-.17.33,2.19.85.68-.17-.51-.85-1.18-.84Zm-.51-10.46-.33.17-.17.51.84-.68Zm.85,29.85v-1.35l.33-.5H465l-.51-.51-.17-1,.68-.17.17-.34-1-.5-.33.16-.17,1.19.34,2-.17.17.33.67.34,1.69.51-.17-.34-1.18Zm-.68,3.54.17.51h.34l.17-.34-.51-.84-.34-.17-.5.34v.5Zm-.67,27.83.34.17.5-.34-.84-.17ZM465,288.12l-.17-.67.84-.51-.17-.84-.5-.51-.51,1-.67.17.84,1.68Zm-.34,44.19-.34-.68H464l-.17.51.5.34Zm.34-28.67.17-.17-.68-.34H464l.5.68Zm.67-31.2-.17.34v1.52l-1,.33-.34.51.51.17,1.18-.51.34-1,.34-2.53-.85.17Zm1.86,11.3,1-.84-.68-.17-.84.5h-.5l-1-.67v-.51h.34l.68.68.67-.17-.51-1.18-.67-.17-.51.34-1.35-.85V281l1.18.68-.33.67v1.18l-.51.51-.17.5H465l1-1.18,1.18.51Zm-3-21.25v-.34h.34v.34Zm.51,45.7-.51.34.17.51H465l.33-.34v-.34Zm-.34-40.81.51.51h.33l-.33-1-.51-.17Zm.51,45.7-.34.34-.17.84.34.17v-.34l.5-.67v-.34ZM465,320l.5.17.17-.34-.17-.17-.84.17Zm.33-30,.68.17.67-.17.17-.51-1-.17-.84.51Zm2.37.84v-.17l-1.52-.16-.17.16v1l-.84.33-.17.68.67.17L467,294.2l-.17-2,.17-.5.51-.51Zm-1.18,11.3.5-.5-.67-1-1.35.17,1.18,1.35ZM465,324.89l.84.5.84-.5.17-.68-.17-.33-.84.84-.84-.34Zm.5-30,.34-.67-.67.67Zm.34,37.61L466,332l-.68-.51.17,1Zm0-73.7-.17.34.51-.34Zm.34,44.52V303l-.34-.16-.17.5Zm-.34,6.75-.17.17H466Zm.84-56-.5-.17v.34l.5.33.34-.5Zm.34,13.15-.84.34v.51l.34.16.84-.5.34.17.5-1L468,265.7l.17-.51,1.18-.17-.67-.84h-.51l-.34.33v.34l-.84,1.52Zm-.5-8.43.16.17,1.18-.68-1.51.17Zm.33,73.87.34-.51-.67.67.16.17Zm1.18-70.5-.5-1.51-.34.16-.51.85.34.34.17.67L467,263l.84.5,2.53.51.51.67-.51.68.51.34.84.16.68-.16-.34-.85-.84-.5-.17-.68-.68-.5v-.34h.68l.34-.68-1.52.68-1.35-.17Zm-1.35,42.33.17-.17-.17-.33ZM467,314.6l.51.34.33-.17-1-1-.17.84Zm-.17-62.9h.34v-.34h-.34ZM470,292.51l1.18,1.69h.33l.17-1,.68-.17.17-.33-.17-2-.51-.84-2-1.18-1.69-.34L468,288l.17-1-.34-.33-.16.33-.85.17.34.85,1,.84,1.52.67.84.68-.5.34v.33l1.68,1.18v.68l-.5.33-1.18-.84Zm-2.87,23.78.34-.34-.68-.17v.51Zm0,31,.17-.17-.51.17Zm0-77.41,1.18.68,1.52-.17v-.34L468,268.56l-.84,1Zm3.88.68-.51.33-.84,1.18v.68l-1-.17L468,273l-.17.5.34.17.34-.17.67.17-.33.51-1.52.5-.17.68,3-1-.17.84-.85.17.51.5h.51l1.18.85,1.68.67-.17-.34-1-.5-.5-.68-.17-.84-.34-.34-.17-1-.84-.84,1.35-.85.17-.33-.17-.85Zm-3.54,69.81.33-.5-.33-.34v.34l-.34.33.17.51Zm.17-62.9.33-.17V277l-.67.34Zm0,45.87.16-.34h-.5v.34ZM468,292l.17-.33-.34-.17-.16.5.33.17Zm.17,1.18-.5-.17v1.19l.67-.17.51-.51Zm-.34,9.11L468,302l-.17-.17-.16.51Zm.17,14.5.68,1.69.5.34.17-1.52-.5-.84-.51-.34-.67.34Zm0,33.06-.33.33H468Zm.85-6.24-.34-.51-.68-.17.17.68.85.5Zm-1,16.36.51.33-.17-.67-.34-.17Zm6.41-75.22-.67-.67-1,.5-.17-1.18h-.34l-.17.34-.67-.17-.34-.67h-.34l.17.84-1.85-.51-.51.17-.34.85.85.5.17,1.35,1.85.84.67-.16-.16-.34h-.34l-.34-.34,1-1.18.68.51.34-.17,1,.17.67-.17Zm-4.38,15.18.67-.17.51-1-.51-2.87-.67-.17.5,1.35H470l-1.18-1.68h-.34l-.34.33.17.34.84.34-.16.67.16.85.34.5-1.52.34,1.35.67Zm-1.18,6.74-.34-.16-.34.16.68.34Zm-.17-4.72.67-.17-.5-.16-.51.33Zm-.34,51.78.34.33.51-.33v-.34h-.85Zm.51-29.18H469l.16-.34-.67-.17-.17.34Zm0,8.77-.34.17.34.34.34-.34Zm-.17-57,.17.84,1.18,1.69.67-1.52-.67-.17L468.69,276Zm.67,15,.34-.17.17-.51-1.18-.33.34,1Zm-.67,19.56.34.17.33-.17-.16-.34h-.51Zm.34,25.8.33-.17-.67-.33v.5Zm.67-69.14,1-1-1.35-.68-.33,1.18.33.51Zm-.5,14.33v.34h.33l-.17-.5Zm0,4.9v.33l.33-.17Zm.5,27.48-.34-.33-.16.5Zm2.7-33.22-.51-1.18-1.85-.84-.17.67.84.51-.17.17-.84-.34-.34.34v.33l1.18.85v.5l.68-.17,1-.67.34.17Zm-2.87,3.54H470l.84.51-.17.34h-.84l-.68-.51Zm-.17,17.54.51.51.84-.34-1.35-.51Zm.68,3.37.5-.33.17-.68-.33-.17-.68.17-.34,1Zm-.17,13-.51.51.68.16.17-.5Zm.84,7.76-.33-.17-.85,1.35Zm-.67,3.88-.17-.17-.34.5.51.17Zm-.17,8.26.17-.17-.51-.17v.34Zm0-44v.34l.67-.17-.16-.33-.68-.17Zm.17,3.88h.34l.33.34-1,.34Zm.34,25.3.33-.51-.33-.17-.51.17.17.51ZM470,288.12l.17.17.84-.17-.68-.67-.5.34Zm.33,43.85h-.5v.34l.34.17.33-.17Zm.17,2.7.34-1.18h-.51l-.16,1.18.5.34Zm.17-66.28-.34.34.51-.34-.17-.17Zm.51,36.09h1l.67-1.52-.5-.33-1.35.5-.51-.17-.17.34.17.34.68-.17.17.17-.34.17v.33Zm-.17,3.88v.17h.34l.16-.67-.67.16Zm.67-38.11.17-.34-.34-.5-.5.16.17.85Zm.17,42.83-.17-.67h-.33l-.34.34v.5l.34.68.5.33Zm-.17,25.3-.33-.68-.34-.16.17,1,.5.17Zm-.33-38.45v.34h.33l.17-.51Zm.33-17.37.51.34,1.18-.17-1.18-.68-.68.17Zm.17,15.68,1-.84.17-.84-.84-.68-.68,2.36Zm-.17-10.12.51,1.35h.34l.33-.5-.5-1-.68-.68Zm3.38-11.8-.51-1.52-.51-.34h-1l-1,.85.34.33.84-.5.51.17.5,2.36-.67.84-1.18-.84-.51,1.18.51.67-.17.68h.84l1-.85.51-1,.34-1.51Zm-2.53-6.24.33.67v.51l-.84,1.52.17.17,1.35-1.18-.17-1.35-.84-.68Zm0,24.28.33-.16-.16-.51h-.34l-.17.67Zm0,34.41h.5l-.17-.34h-.5Zm.17-9.78.67.16.34-.5-.68-.17-.5.17Zm.16,2.36.68-.85-.17-.17-.84,1Zm.34-8.6-.34-.34-.16.67h.5Zm.34,18.38h.34l.33-.51-.33-.17-.68.51Zm.34-71.17-.34.17.17,1.18.33.17.17-.68-.17-.67Zm.33,31-.17-.34-.5-.16v.67l.5.17Zm-.67,1.35.17,1h.33l.51-.5h.51l-1.35-.85Zm.34,2.36.67-.17v-.33l-.84.16Zm.5,19.9-.17-.34h-.33v.68h.5Zm-.17,14.67.17-.33-.34-.17-.16.5Zm.17-47.72-.34.33v.68l1,.34-.17-1.35Zm0,27h.51l1-1.18.17-.51h-.68l-.67.34-.68,1.18Zm.17-3.71-.17.17,1.35.84h.84l.17-.67-.33-.34-1.69-.34Zm.34-41.15-.17.68.5-.17-.16-.34Zm0,10.46-.17.33.17.17.33-.67Zm.33-3.38-.16-.16-.17.16.33.34Zm.34-4.72-.34.51.17.67.85.68.33-.51-.16-1.18-.51-.34Zm-.17,83,.51-.17-.17-.33-.51.17Zm.68-58.35v-.5l-.51-.34-.17,1.18ZM475.77,264l.34.34.5-.34v-.34h-.84Zm.51,38.11-.34-.34v.51ZM478,312.75l.17-.68-.5-.5-.34.67-.68.17-.5.5.84.17.68-.17Zm.34-12-.51-.5h-1l-.17.16.17.51.17-.17,1.35.51Zm-1.18,44.52.17-.5-.51-.34-.17.84Zm0-37.43h-.34l.51.33.17-.17Zm1-1.86-.5-.84h-.34l-.34.33V306l1.18.34Zm.51-38.11v-.51l-1.52-.84.84.67Zm-.85,18.38h-.5l.17.51.67-.34Zm0-15,.17.67h.34v-.84H478Zm1,15.35h.33l-.5-.34-.17.17Zm.33,26,.51-.17h-.51Z" transform="translate(-101.56 -244.61)" fill="#fff"/></svg>